<mxfile host="app.diagrams.net" agent="Mozilla/5.0 (X11; Linux x86_64) AppleWebKit/537.36 (KHTML, like Gecko) Chrome/131.0.0.0 Safari/537.36" version="26.0.4" pages="2">
  <diagram id="EMfAbqqZKWI0kDw0vO57" name="v8">
    <mxGraphModel grid="1" page="1" gridSize="10" guides="1" tooltips="1" connect="1" arrows="1" fold="1" pageScale="1" pageWidth="827" pageHeight="1169" math="0" shadow="0">
      <root>
        <mxCell id="0" />
        <mxCell id="1" parent="0" />
        <mxCell id="Yi2zr5Vyh4pYzkWV7ahC-1" value="" style="endArrow=block;html=1;fontColor=#000099;exitX=0.5;exitY=1;exitDx=0;exitDy=0;endFill=0;entryX=0.5;entryY=0;entryDx=0;entryDy=0;endSize=8;arcSize=0;rounded=0;" edge="1" parent="1" source="Yi2zr5Vyh4pYzkWV7ahC-6" target="Yi2zr5Vyh4pYzkWV7ahC-2">
          <mxGeometry width="50" height="50" relative="1" as="geometry">
            <mxPoint x="295" y="565" as="sourcePoint" />
            <mxPoint x="452.9999999999893" y="565" as="targetPoint" />
          </mxGeometry>
        </mxCell>
        <mxCell id="Yi2zr5Vyh4pYzkWV7ahC-2" value="prov:Collection" style="rounded=0;whiteSpace=wrap;html=1;snapToPoint=1;points=[[0.1,0],[0.2,0],[0.3,0],[0.4,0],[0.5,0],[0.6,0],[0.7,0],[0.8,0],[0.9,0],[0,0.1],[0,0.3],[0,0.5],[0,0.7],[0,0.9],[0.1,1],[0.2,1],[0.3,1],[0.4,1],[0.5,1],[0.6,1],[0.7,1],[0.8,1],[0.9,1],[1,0.1],[1,0.3],[1,0.5],[1,0.7],[1,0.9]];fillColor=#fff2cc;strokeColor=#d6b656;" vertex="1" parent="1">
          <mxGeometry x="469.5" y="740" width="100" height="30" as="geometry" />
        </mxCell>
        <mxCell id="Yi2zr5Vyh4pYzkWV7ahC-3" value="" style="endArrow=classic;html=1;endSize=8;arcSize=0;rounded=0;" edge="1" parent="1" source="Yi2zr5Vyh4pYzkWV7ahC-6">
          <mxGeometry width="50" height="50" relative="1" as="geometry">
            <mxPoint x="670" y="680" as="sourcePoint" />
            <mxPoint x="779" y="665" as="targetPoint" />
          </mxGeometry>
        </mxCell>
        <mxCell id="Yi2zr5Vyh4pYzkWV7ahC-4" value="prov:hadMember" style="text;html=1;align=center;verticalAlign=middle;resizable=0;points=[];labelBackgroundColor=#ffffff;" connectable="0" vertex="1" parent="Yi2zr5Vyh4pYzkWV7ahC-3">
          <mxGeometry x="-0.1269" relative="1" as="geometry">
            <mxPoint x="1" as="offset" />
          </mxGeometry>
        </mxCell>
        <mxCell id="Yi2zr5Vyh4pYzkWV7ahC-5" value="&lt;div&gt;&lt;b&gt;prov&lt;/b&gt;: http://www.w3.org/ns/prov#&lt;/div&gt;&lt;div&gt;&lt;b&gt;ftr:&lt;/b&gt; https://w3id.org/ftr#&lt;br&gt;&lt;b&gt;dcat&lt;/b&gt;: https://www.w3.org/ns/dcat#&lt;/div&gt;&lt;div&gt;&lt;b&gt;sio&lt;/b&gt;: http://semanticscience.org/resource/&lt;br&gt;&lt;/div&gt;&lt;b&gt;dcterms&lt;/b&gt;: http://purl.org/dc/terms/&lt;div&gt;&lt;b&gt;doap:&amp;nbsp;&lt;/b&gt;&lt;span style=&quot;background-color: initial;&quot;&gt;http://usefulinc.com/ns/doap#&lt;/span&gt;&lt;/div&gt;&lt;div&gt;&lt;b&gt;adms&lt;/b&gt;: http://www.w3.org/ns/adms#&lt;/div&gt;&lt;div&gt;&lt;b&gt;vivo&lt;/b&gt;:&amp;nbsp;http://vivoweb.org/ontology/core#&lt;/div&gt;" style="shape=note;whiteSpace=wrap;html=1;backgroundOutline=1;darkOpacity=0.05;" vertex="1" parent="1">
          <mxGeometry x="1039.5" y="570" width="290" height="120" as="geometry" />
        </mxCell>
        <mxCell id="Yi2zr5Vyh4pYzkWV7ahC-6" value="dcterms:identifier&lt;br&gt;dcterms:title&lt;br&gt;dcterms:license" style="rounded=0;whiteSpace=wrap;html=1;snapToPoint=1;points=[[0.1,0],[0.2,0],[0.3,0],[0.4,0],[0.5,0],[0.6,0],[0.7,0],[0.8,0],[0.9,0],[0,0.1],[0,0.3],[0,0.5],[0,0.7],[0,0.9],[0.1,1],[0.2,1],[0.3,1],[0.4,1],[0.5,1],[0.6,1],[0.7,1],[0.8,1],[0.9,1],[1,0.1],[1,0.3],[1,0.5],[1,0.7],[1,0.9]];" vertex="1" parent="1">
          <mxGeometry x="430" y="635" width="179" height="60" as="geometry" />
        </mxCell>
        <mxCell id="Yi2zr5Vyh4pYzkWV7ahC-7" value="" style="edgeStyle=orthogonalEdgeStyle;rounded=0;orthogonalLoop=1;jettySize=auto;html=1;exitX=0.8;exitY=0;exitDx=0;exitDy=0;entryX=0.5;entryY=1;entryDx=0;entryDy=0;" edge="1" parent="1" source="Yi2zr5Vyh4pYzkWV7ahC-10" target="Yi2zr5Vyh4pYzkWV7ahC-19">
          <mxGeometry relative="1" as="geometry">
            <Array as="points">
              <mxPoint x="570" y="605" />
              <mxPoint x="570" y="590" />
              <mxPoint x="675" y="590" />
            </Array>
          </mxGeometry>
        </mxCell>
        <mxCell id="Yi2zr5Vyh4pYzkWV7ahC-8" value="" style="edgeStyle=orthogonalEdgeStyle;rounded=0;orthogonalLoop=1;jettySize=auto;html=1;entryX=0;entryY=0.5;entryDx=0;entryDy=0;exitX=0.1;exitY=0;exitDx=0;exitDy=0;" edge="1" parent="1" source="Yi2zr5Vyh4pYzkWV7ahC-10" target="Yi2zr5Vyh4pYzkWV7ahC-18">
          <mxGeometry relative="1" as="geometry">
            <mxPoint x="799" y="625.1428571428573" as="targetPoint" />
            <Array as="points">
              <mxPoint x="508" y="395" />
            </Array>
          </mxGeometry>
        </mxCell>
        <mxCell id="Yi2zr5Vyh4pYzkWV7ahC-9" value="prov:wasGeneratedBy" style="edgeLabel;html=1;align=center;verticalAlign=middle;resizable=0;points=[];" connectable="0" vertex="1" parent="Yi2zr5Vyh4pYzkWV7ahC-8">
          <mxGeometry x="-0.0599" y="-1" relative="1" as="geometry">
            <mxPoint as="offset" />
          </mxGeometry>
        </mxCell>
        <mxCell id="Yi2zr5Vyh4pYzkWV7ahC-10" value="ftr:TestResultSet" style="rounded=0;whiteSpace=wrap;html=1;snapToPoint=1;points=[[0.1,0],[0.2,0],[0.3,0],[0.4,0],[0.5,0],[0.6,0],[0.7,0],[0.8,0],[0.9,0],[0,0.1],[0,0.3],[0,0.5],[0,0.7],[0,0.9],[0.1,1],[0.2,1],[0.3,1],[0.4,1],[0.5,1],[0.6,1],[0.7,1],[0.8,1],[0.9,1],[1,0.1],[1,0.3],[1,0.5],[1,0.7],[1,0.9]];fillColor=#dae8fc;strokeColor=#6c8ebf;" vertex="1" parent="1">
          <mxGeometry x="430" y="604.9999999999999" width="179" height="30" as="geometry" />
        </mxCell>
        <mxCell id="Yi2zr5Vyh4pYzkWV7ahC-11" value="prov:wasDerivedFrom" style="edgeStyle=orthogonalEdgeStyle;rounded=0;orthogonalLoop=1;jettySize=auto;html=1;entryX=0.5;entryY=1;entryDx=0;entryDy=0;exitX=0.1;exitY=0;exitDx=0;exitDy=0;" edge="1" parent="1" source="Yi2zr5Vyh4pYzkWV7ahC-14" target="Yi2zr5Vyh4pYzkWV7ahC-19">
          <mxGeometry x="0.5626" relative="1" as="geometry">
            <mxPoint as="offset" />
            <mxPoint x="900" y="800" as="sourcePoint" />
            <Array as="points">
              <mxPoint x="798" y="590" />
              <mxPoint x="675" y="590" />
            </Array>
          </mxGeometry>
        </mxCell>
        <mxCell id="Yi2zr5Vyh4pYzkWV7ahC-12" value="ftr:outputFromTest" style="edgeStyle=orthogonalEdgeStyle;rounded=0;orthogonalLoop=1;jettySize=auto;html=1;exitX=0.839;exitY=-0.012;exitDx=0;exitDy=0;exitPerimeter=0;" edge="1" parent="1" source="Yi2zr5Vyh4pYzkWV7ahC-14" target="Yi2zr5Vyh4pYzkWV7ahC-31">
          <mxGeometry relative="1" as="geometry">
            <Array as="points">
              <mxPoint x="930" y="530" />
              <mxPoint x="931" y="530" />
            </Array>
          </mxGeometry>
        </mxCell>
        <mxCell id="Yi2zr5Vyh4pYzkWV7ahC-13" value="dcterms:identifier&lt;br&gt;&lt;div&gt;dcterms:title&lt;br&gt;&lt;/div&gt;&lt;div&gt;dcterms:description&lt;/div&gt;&lt;div&gt;dcterms:license&lt;br&gt;&lt;/div&gt;ftr:status&lt;br&gt;ftr:log&lt;br&gt;(*)&amp;nbsp;ftr:completion&lt;br&gt;(*)&amp;nbsp;ftr:affectedElements" style="rounded=0;whiteSpace=wrap;html=1;snapToPoint=1;points=[[0.1,0],[0.2,0],[0.3,0],[0.4,0],[0.5,0],[0.6,0],[0.7,0],[0.8,0],[0.9,0],[0,0.1],[0,0.3],[0,0.5],[0,0.7],[0,0.9],[0.1,1],[0.2,1],[0.3,1],[0.4,1],[0.5,1],[0.6,1],[0.7,1],[0.8,1],[0.9,1],[1,0.1],[1,0.3],[1,0.5],[1,0.7],[1,0.9]];" vertex="1" parent="1">
          <mxGeometry x="780" y="640" width="179" height="130" as="geometry" />
        </mxCell>
        <mxCell id="Yi2zr5Vyh4pYzkWV7ahC-14" value="ftr:TestResult" style="rounded=0;whiteSpace=wrap;html=1;snapToPoint=1;points=[[0.1,0],[0.2,0],[0.3,0],[0.4,0],[0.5,0],[0.6,0],[0.7,0],[0.8,0],[0.9,0],[0,0.1],[0,0.3],[0,0.5],[0,0.7],[0,0.9],[0.1,1],[0.2,1],[0.3,1],[0.4,1],[0.5,1],[0.6,1],[0.7,1],[0.8,1],[0.9,1],[1,0.1],[1,0.3],[1,0.5],[1,0.7],[1,0.9]];fillColor=#dae8fc;strokeColor=#6c8ebf;" vertex="1" parent="1">
          <mxGeometry x="780" y="609.9999999999999" width="179" height="30" as="geometry" />
        </mxCell>
        <mxCell id="Yi2zr5Vyh4pYzkWV7ahC-15" style="edgeStyle=orthogonalEdgeStyle;rounded=0;orthogonalLoop=1;jettySize=auto;html=1;exitX=0.5;exitY=0;exitDx=0;exitDy=0;entryX=0.5;entryY=1;entryDx=0;entryDy=0;endArrow=block;endFill=0;" edge="1" parent="1" source="Yi2zr5Vyh4pYzkWV7ahC-18" target="Yi2zr5Vyh4pYzkWV7ahC-20">
          <mxGeometry relative="1" as="geometry" />
        </mxCell>
        <mxCell id="Yi2zr5Vyh4pYzkWV7ahC-16" value="prov:generated" style="edgeStyle=orthogonalEdgeStyle;rounded=0;orthogonalLoop=1;jettySize=auto;html=1;exitX=0.9;exitY=1;exitDx=0;exitDy=0;" edge="1" parent="1" source="Yi2zr5Vyh4pYzkWV7ahC-23">
          <mxGeometry x="-0.1845" relative="1" as="geometry">
            <mxPoint x="877" y="610" as="targetPoint" />
            <Array as="points">
              <mxPoint x="698" y="480" />
              <mxPoint x="877" y="480" />
            </Array>
            <mxPoint as="offset" />
          </mxGeometry>
        </mxCell>
        <mxCell id="Yi2zr5Vyh4pYzkWV7ahC-17" value="prov:wasAssociatedWith" style="edgeStyle=orthogonalEdgeStyle;rounded=0;orthogonalLoop=1;jettySize=auto;html=1;exitX=1;exitY=0.5;exitDx=0;exitDy=0;entryX=-0.006;entryY=0.599;entryDx=0;entryDy=0;entryPerimeter=0;" edge="1" parent="1" source="Yi2zr5Vyh4pYzkWV7ahC-18" target="Yi2zr5Vyh4pYzkWV7ahC-31">
          <mxGeometry relative="1" as="geometry">
            <Array as="points">
              <mxPoint x="778" y="395" />
              <mxPoint x="778" y="360" />
            </Array>
          </mxGeometry>
        </mxCell>
        <mxCell id="Yi2zr5Vyh4pYzkWV7ahC-18" value="ftr:TestExecutionActivity" style="rounded=0;whiteSpace=wrap;html=1;snapToPoint=1;points=[[0.1,0],[0.2,0],[0.3,0],[0.4,0],[0.5,0],[0.6,0],[0.7,0],[0.8,0],[0.9,0],[0,0.1],[0,0.3],[0,0.5],[0,0.7],[0,0.9],[0.1,1],[0.2,1],[0.3,1],[0.4,1],[0.5,1],[0.6,1],[0.7,1],[0.8,1],[0.9,1],[1,0.1],[1,0.3],[1,0.5],[1,0.7],[1,0.9]];fillColor=#dae8fc;strokeColor=#6c8ebf;" vertex="1" parent="1">
          <mxGeometry x="544.5" y="380" width="170" height="30" as="geometry" />
        </mxCell>
        <mxCell id="Yi2zr5Vyh4pYzkWV7ahC-19" value="prov:Entity" style="rounded=0;whiteSpace=wrap;html=1;snapToPoint=1;points=[[0.1,0],[0.2,0],[0.3,0],[0.4,0],[0.5,0],[0.6,0],[0.7,0],[0.8,0],[0.9,0],[0,0.1],[0,0.3],[0,0.5],[0,0.7],[0,0.9],[0.1,1],[0.2,1],[0.3,1],[0.4,1],[0.5,1],[0.6,1],[0.7,1],[0.8,1],[0.9,1],[1,0.1],[1,0.3],[1,0.5],[1,0.7],[1,0.9]];fillColor=#fff2cc;strokeColor=#d6b656;" vertex="1" parent="1">
          <mxGeometry x="631" y="520" width="88" height="30" as="geometry" />
        </mxCell>
        <mxCell id="Yi2zr5Vyh4pYzkWV7ahC-20" value="prov:Activity" style="rounded=0;whiteSpace=wrap;html=1;snapToPoint=1;points=[[0.1,0],[0.2,0],[0.3,0],[0.4,0],[0.5,0],[0.6,0],[0.7,0],[0.8,0],[0.9,0],[0,0.1],[0,0.3],[0,0.5],[0,0.7],[0,0.9],[0.1,1],[0.2,1],[0.3,1],[0.4,1],[0.5,1],[0.6,1],[0.7,1],[0.8,1],[0.9,1],[1,0.1],[1,0.3],[1,0.5],[1,0.7],[1,0.9]];fillColor=#fff2cc;strokeColor=#d6b656;" vertex="1" parent="1">
          <mxGeometry x="580" y="317.75" width="100" height="30" as="geometry" />
        </mxCell>
        <mxCell id="Yi2zr5Vyh4pYzkWV7ahC-21" value="" style="edgeStyle=orthogonalEdgeStyle;rounded=0;orthogonalLoop=1;jettySize=auto;html=1;" edge="1" parent="1" source="Yi2zr5Vyh4pYzkWV7ahC-23" target="Yi2zr5Vyh4pYzkWV7ahC-19">
          <mxGeometry relative="1" as="geometry" />
        </mxCell>
        <mxCell id="Yi2zr5Vyh4pYzkWV7ahC-22" value="prov:used" style="edgeLabel;html=1;align=center;verticalAlign=middle;resizable=0;points=[];" connectable="0" vertex="1" parent="Yi2zr5Vyh4pYzkWV7ahC-21">
          <mxGeometry x="-0.5022" y="2" relative="1" as="geometry">
            <mxPoint y="-7" as="offset" />
          </mxGeometry>
        </mxCell>
        <mxCell id="Yi2zr5Vyh4pYzkWV7ahC-23" value="" style="rounded=0;whiteSpace=wrap;html=1;snapToPoint=1;points=[[0.1,0],[0.2,0],[0.3,0],[0.4,0],[0.5,0],[0.6,0],[0.7,0],[0.8,0],[0.9,0],[0,0.1],[0,0.3],[0,0.5],[0,0.7],[0,0.9],[0.1,1],[0.2,1],[0.3,1],[0.4,1],[0.5,1],[0.6,1],[0.7,1],[0.8,1],[0.9,1],[1,0.1],[1,0.3],[1,0.5],[1,0.7],[1,0.9]];" vertex="1" parent="1">
          <mxGeometry x="544.5" y="410" width="170" height="30" as="geometry" />
        </mxCell>
        <mxCell id="Yi2zr5Vyh4pYzkWV7ahC-24" value="" style="whiteSpace=wrap;html=1;aspect=fixed;fillColor=#dae8fc;strokeColor=#6c8ebf;" vertex="1" parent="1">
          <mxGeometry x="1357" y="585.5" width="19" height="19" as="geometry" />
        </mxCell>
        <mxCell id="Yi2zr5Vyh4pYzkWV7ahC-25" value="" style="whiteSpace=wrap;html=1;aspect=fixed;fillColor=#fff2cc;strokeColor=#d6b656;" vertex="1" parent="1">
          <mxGeometry x="1357" y="615.5" width="19" height="19" as="geometry" />
        </mxCell>
        <mxCell id="Yi2zr5Vyh4pYzkWV7ahC-26" value="Proposed classes " style="text;html=1;align=left;verticalAlign=middle;whiteSpace=wrap;rounded=0;" vertex="1" parent="1">
          <mxGeometry x="1380" y="580" width="100" height="30" as="geometry" />
        </mxCell>
        <mxCell id="Yi2zr5Vyh4pYzkWV7ahC-27" value="Reused classes" style="text;html=1;align=left;verticalAlign=middle;whiteSpace=wrap;rounded=0;" vertex="1" parent="1">
          <mxGeometry x="1381" y="610" width="89" height="30" as="geometry" />
        </mxCell>
        <mxCell id="Yi2zr5Vyh4pYzkWV7ahC-28" value="&lt;div&gt;sio:is-implementation-of&amp;nbsp;&lt;/div&gt;&lt;div&gt;(sio:SIO_000233)&lt;/div&gt;" style="edgeStyle=orthogonalEdgeStyle;rounded=0;orthogonalLoop=1;jettySize=auto;html=1;exitX=0.2;exitY=0;exitDx=0;exitDy=0;entryX=0.3;entryY=1;entryDx=0;entryDy=0;" edge="1" parent="1" source="Yi2zr5Vyh4pYzkWV7ahC-33" target="Yi2zr5Vyh4pYzkWV7ahC-38">
          <mxGeometry x="-0.2583" relative="1" as="geometry">
            <mxPoint x="1140" y="305" as="targetPoint" />
            <Array as="points">
              <mxPoint x="874" y="195" />
              <mxPoint x="874" y="91" />
            </Array>
            <mxPoint as="offset" />
          </mxGeometry>
        </mxCell>
        <mxCell id="Yi2zr5Vyh4pYzkWV7ahC-30" value="" style="edgeStyle=orthogonalEdgeStyle;rounded=0;orthogonalLoop=1;jettySize=auto;html=1;entryX=0.5;entryY=0;entryDx=0;entryDy=0;startArrow=none;startFill=0;exitX=1;exitY=0.882;exitDx=0;exitDy=0;exitPerimeter=0;" edge="1" parent="1" source="Yi2zr5Vyh4pYzkWV7ahC-38" target="Yi2zr5Vyh4pYzkWV7ahC-35">
          <mxGeometry relative="1" as="geometry">
            <mxPoint x="1000" y="-120" as="sourcePoint" />
            <mxPoint x="1220" y="50" as="targetPoint" />
            <Array as="points">
              <mxPoint x="1190" y="50" />
            </Array>
          </mxGeometry>
        </mxCell>
        <mxCell id="Yi2zr5Vyh4pYzkWV7ahC-31" value="dcterms:identifier&lt;div&gt;dcterms:title&lt;br&gt;&lt;div&gt;dcterms:description&lt;/div&gt;&lt;div&gt;&lt;span style=&quot;background-color: transparent; color: light-dark(rgb(0, 0, 0), rgb(255, 255, 255));&quot;&gt;(*)&lt;/span&gt;&lt;span style=&quot;background-color: transparent; color: light-dark(rgb(0, 0, 0), rgb(255, 255, 255));&quot;&gt;&amp;nbsp;&lt;/span&gt;&lt;span style=&quot;font-family: Arial; background-color: initial;&quot;&gt;dcat:endpointDescription&lt;/span&gt;&lt;br&gt;&lt;/div&gt;&lt;div&gt;&lt;span style=&quot;font-size: 12px; color: rgb(0, 0, 0); font-weight: normal; text-decoration: none; font-family: Arial; font-style: normal; text-decoration-skip-ink: none;&quot;&gt;&lt;span style=&quot;background-color: transparent; color: light-dark(rgb(0, 0, 0), rgb(255, 255, 255)); font-family: Helvetica;&quot;&gt;(*)&lt;/span&gt;&lt;span style=&quot;background-color: transparent; color: light-dark(rgb(0, 0, 0), rgb(255, 255, 255)); font-family: Helvetica;&quot;&gt;&amp;nbsp;&lt;/span&gt;dcat&lt;/span&gt;&lt;span style=&quot;font-size: 12px; color: rgb(0, 0, 0); font-weight: normal; text-decoration: none; font-family: Arial; font-style: normal; text-decoration-skip-ink: none;&quot;&gt;:endpointURL&lt;/span&gt;&lt;/div&gt;&lt;div&gt;&lt;span style=&quot;font-size: 12px; color: rgb(0, 0, 0); font-weight: normal; text-decoration: none; font-family: Arial; font-style: normal; text-decoration-skip-ink: none;&quot;&gt;&lt;span style=&quot;background-color: transparent; color: light-dark(rgb(0, 0, 0), rgb(255, 255, 255)); font-family: Helvetica;&quot;&gt;(*)&lt;/span&gt;&lt;span style=&quot;background-color: transparent; color: light-dark(rgb(0, 0, 0), rgb(255, 255, 255)); font-family: Helvetica;&quot;&gt;&amp;nbsp;&lt;/span&gt;dcat:keyword&lt;br&gt;&lt;/span&gt;&lt;/div&gt;&lt;div&gt;&lt;span style=&quot;font-size: 12px; color: rgb(0, 0, 0); font-weight: normal; text-decoration: none; font-family: Arial; font-style: normal; text-decoration-skip-ink: none;&quot;&gt;&lt;div style=&quot;font-family: Helvetica;&quot;&gt;&lt;span style=&quot;color: light-dark(rgb(0, 0, 0), rgb(237, 237, 237)); background-color: transparent;&quot;&gt;(*)&lt;/span&gt;&lt;span style=&quot;color: light-dark(rgb(0, 0, 0), rgb(237, 237, 237)); background-color: transparent;&quot;&gt;&amp;nbsp;&lt;/span&gt;vivo:abbreviation&lt;/div&gt;&lt;/span&gt;&lt;/div&gt;&lt;div&gt;&lt;span style=&quot;font-size: 12px; color: rgb(0, 0, 0); font-weight: normal; text-decoration: none; font-family: Arial; font-style: normal; text-decoration-skip-ink: none;&quot;&gt;&lt;div style=&quot;font-family: Helvetica;&quot;&gt;&lt;span style=&quot;color: light-dark(rgb(0, 0, 0), rgb(237, 237, 237)); background-color: transparent;&quot;&gt;(*)&lt;/span&gt;&lt;span style=&quot;color: light-dark(rgb(0, 0, 0), rgb(237, 237, 237)); background-color: transparent;&quot;&gt;&amp;nbsp;&lt;/span&gt;dqv:inDimension&lt;/div&gt;&lt;/span&gt;&lt;/div&gt;&lt;div&gt;&lt;span style=&quot;background-color: transparent; color: light-dark(rgb(0, 0, 0), rgb(255, 255, 255));&quot;&gt;(*)&lt;/span&gt;&lt;span style=&quot;background-color: transparent; color: light-dark(rgb(0, 0, 0), rgb(255, 255, 255));&quot;&gt;&amp;nbsp;&lt;/span&gt;&lt;span style=&quot;font-family: Arial; background-color: initial;&quot;&gt;doap:repository&lt;/span&gt;&lt;br&gt;&lt;/div&gt;&lt;div&gt;&lt;span style=&quot;text-decoration-skip-ink: none;&quot;&gt;&lt;span style=&quot;background-color: transparent; color: light-dark(rgb(0, 0, 0), rgb(255, 255, 255));&quot;&gt;(*)&lt;/span&gt;&lt;span style=&quot;background-color: transparent; color: light-dark(rgb(0, 0, 0), rgb(255, 255, 255));&quot;&gt;&amp;nbsp;&lt;/span&gt;&lt;font face=&quot;Arial&quot;&gt;dcterms:type&lt;/font&gt;&lt;br&gt;&lt;/span&gt;&lt;/div&gt;&lt;div&gt;&lt;span style=&quot;text-decoration-skip-ink: none;&quot;&gt;&lt;font face=&quot;Arial&quot;&gt;dcterms:license&lt;/font&gt;&lt;br&gt;&lt;/span&gt;&lt;/div&gt;&lt;div&gt;&lt;span style=&quot;text-decoration-skip-ink: none;&quot;&gt;&lt;span style=&quot;background-color: transparent; color: light-dark(rgb(0, 0, 0), rgb(255, 255, 255));&quot;&gt;(*)&lt;/span&gt;&lt;span style=&quot;background-color: transparent; color: light-dark(rgb(0, 0, 0), rgb(255, 255, 255));&quot;&gt;&amp;nbsp;&lt;/span&gt;&lt;font face=&quot;Arial&quot;&gt;dcat:theme&lt;/font&gt;&lt;br&gt;&lt;/span&gt;&lt;/div&gt;&lt;div&gt;&lt;span style=&quot;text-decoration-skip-ink: none;&quot;&gt;&lt;div&gt;&lt;span style=&quot;font-family: Arial; text-decoration-skip-ink: none;&quot;&gt;dcat:version&lt;/span&gt;&lt;/div&gt;&lt;/span&gt;&lt;/div&gt;&lt;div&gt;&lt;span style=&quot;text-decoration-skip-ink: none;&quot;&gt;&lt;span style=&quot;background-color: transparent; color: light-dark(rgb(0, 0, 0), rgb(255, 255, 255));&quot;&gt;(*)&lt;/span&gt;&lt;span style=&quot;background-color: transparent; color: light-dark(rgb(0, 0, 0), rgb(255, 255, 255));&quot;&gt;&amp;nbsp;&lt;/span&gt;&lt;font face=&quot;Arial&quot;&gt;adms:versionNotes&lt;/font&gt;&lt;br&gt;&lt;/span&gt;&lt;/div&gt;&lt;/div&gt;&lt;div&gt;&lt;span style=&quot;text-decoration-skip-ink: none;&quot;&gt;&lt;span style=&quot;background-color: transparent; color: light-dark(rgb(0, 0, 0), rgb(255, 255, 255));&quot;&gt;(*)&lt;/span&gt;&lt;span style=&quot;background-color: transparent; color: light-dark(rgb(0, 0, 0), rgb(255, 255, 255));&quot;&gt;&amp;nbsp;&lt;/span&gt;&lt;font face=&quot;Arial&quot;&gt;ftr:status&lt;/font&gt;&lt;/span&gt;&lt;/div&gt;" style="rounded=0;whiteSpace=wrap;html=1;snapToPoint=1;points=[[0.1,0],[0.2,0],[0.3,0],[0.4,0],[0.5,0],[0.6,0],[0.7,0],[0.8,0],[0.9,0],[0,0.1],[0,0.3],[0,0.5],[0,0.7],[0,0.9],[0.1,1],[0.2,1],[0.3,1],[0.4,1],[0.5,1],[0.6,1],[0.7,1],[0.8,1],[0.9,1],[1,0.1],[1,0.3],[1,0.5],[1,0.7],[1,0.9]];" vertex="1" parent="1">
          <mxGeometry x="841" y="225.5" width="179" height="224.5" as="geometry" />
        </mxCell>
        <mxCell id="Yi2zr5Vyh4pYzkWV7ahC-32" style="edgeStyle=orthogonalEdgeStyle;rounded=0;orthogonalLoop=1;jettySize=auto;html=1;exitX=1.006;exitY=0.864;exitDx=0;exitDy=0;endArrow=block;endFill=0;exitPerimeter=0;" edge="1" parent="1" source="Yi2zr5Vyh4pYzkWV7ahC-31" target="Yi2zr5Vyh4pYzkWV7ahC-34">
          <mxGeometry relative="1" as="geometry">
            <Array as="points">
              <mxPoint x="1050" y="419" />
              <mxPoint x="1210" y="420" />
            </Array>
          </mxGeometry>
        </mxCell>
        <mxCell id="Yi2zr5Vyh4pYzkWV7ahC-33" value="ftr:Test" style="rounded=0;whiteSpace=wrap;html=1;snapToPoint=1;points=[[0.1,0],[0.2,0],[0.3,0],[0.4,0],[0.5,0],[0.6,0],[0.7,0],[0.8,0],[0.9,0],[0,0.1],[0,0.3],[0,0.5],[0,0.7],[0,0.9],[0.1,1],[0.2,1],[0.3,1],[0.4,1],[0.5,1],[0.6,1],[0.7,1],[0.8,1],[0.9,1],[1,0.1],[1,0.3],[1,0.5],[1,0.7],[1,0.9]];fillColor=#dae8fc;strokeColor=#6c8ebf;" vertex="1" parent="1">
          <mxGeometry x="841" y="195.4999999999999" width="179" height="30" as="geometry" />
        </mxCell>
        <mxCell id="Yi2zr5Vyh4pYzkWV7ahC-34" value="&lt;div&gt;dcat:DataService&lt;/div&gt;&lt;div&gt;prov:Agent&lt;/div&gt;" style="rounded=0;whiteSpace=wrap;html=1;snapToPoint=1;points=[[0.1,0],[0.2,0],[0.3,0],[0.4,0],[0.5,0],[0.6,0],[0.7,0],[0.8,0],[0.9,0],[0,0.1],[0,0.3],[0,0.5],[0,0.7],[0,0.9],[0.1,1],[0.2,1],[0.3,1],[0.4,1],[0.5,1],[0.6,1],[0.7,1],[0.8,1],[0.9,1],[1,0.1],[1,0.3],[1,0.5],[1,0.7],[1,0.9]];fillColor=#fff2cc;strokeColor=#d6b656;" vertex="1" parent="1">
          <mxGeometry x="1140" y="450" width="100" height="40" as="geometry" />
        </mxCell>
        <mxCell id="Yi2zr5Vyh4pYzkWV7ahC-35" value="vcard:Individual&lt;div&gt;vcard.Organization&lt;/div&gt;" style="rounded=0;whiteSpace=wrap;html=1;snapToPoint=1;points=[[0.1,0],[0.2,0],[0.3,0],[0.4,0],[0.5,0],[0.6,0],[0.7,0],[0.8,0],[0.9,0],[0,0.1],[0,0.3],[0,0.5],[0,0.7],[0,0.9],[0.1,1],[0.2,1],[0.3,1],[0.4,1],[0.5,1],[0.6,1],[0.7,1],[0.8,1],[0.9,1],[1,0.1],[1,0.3],[1,0.5],[1,0.7],[1,0.9]];fillColor=#fff2cc;strokeColor=#d6b656;" vertex="1" parent="1">
          <mxGeometry x="1100.5" y="280" width="179" height="40" as="geometry" />
        </mxCell>
        <mxCell id="Yi2zr5Vyh4pYzkWV7ahC-36" value="&lt;div style=&quot;forced-color-adjust: none; color: rgb(0, 0, 0); font-family: Helvetica; font-size: 11px; font-style: normal; font-variant-ligatures: normal; font-variant-caps: normal; font-weight: 400; letter-spacing: normal; orphans: 2; text-align: center; text-indent: 0px; text-transform: none; widows: 2; word-spacing: 0px; -webkit-text-stroke-width: 0px; white-space: nowrap; text-decoration-thickness: initial; text-decoration-style: initial; text-decoration-color: initial;&quot;&gt;&lt;span style=&quot;background-color: rgb(251, 251, 251); font-size: 12px; text-wrap-mode: wrap; color: light-dark(rgb(0, 0, 0), rgb(255, 255, 255));&quot;&gt;(*)&lt;/span&gt;&lt;span style=&quot;background-color: rgb(251, 251, 251); font-size: 12px; text-wrap-mode: wrap; color: light-dark(rgb(0, 0, 0), rgb(255, 255, 255));&quot;&gt;&amp;nbsp;&lt;/span&gt;sio:has-implementation&amp;nbsp;&lt;/div&gt;&lt;div style=&quot;forced-color-adjust: none; color: rgb(0, 0, 0); font-family: Helvetica; font-size: 11px; font-style: normal; font-variant-ligatures: normal; font-variant-caps: normal; font-weight: 400; letter-spacing: normal; orphans: 2; text-align: center; text-indent: 0px; text-transform: none; widows: 2; word-spacing: 0px; -webkit-text-stroke-width: 0px; white-space: nowrap; text-decoration-thickness: initial; text-decoration-style: initial; text-decoration-color: initial;&quot;&gt;(sio:SIO_000234)&lt;/div&gt;" style="edgeStyle=orthogonalEdgeStyle;rounded=0;orthogonalLoop=1;jettySize=auto;html=1;exitX=0.784;exitY=0.998;exitDx=0;exitDy=0;exitPerimeter=0;startArrow=none;startFill=0;" edge="1" parent="1" source="Yi2zr5Vyh4pYzkWV7ahC-38">
          <mxGeometry x="-0.3329" relative="1" as="geometry">
            <mxPoint x="960" y="196" as="targetPoint" />
            <Array as="points">
              <mxPoint x="960" y="150" />
              <mxPoint x="960" y="196" />
            </Array>
            <mxPoint as="offset" />
          </mxGeometry>
        </mxCell>
        <mxCell id="Yi2zr5Vyh4pYzkWV7ahC-38" value="&lt;span style=&quot;text-decoration-skip-ink: none;&quot;&gt;&lt;div&gt;dcterms:identifier&lt;/div&gt;&lt;div&gt;&lt;span style=&quot;background-color: initial;&quot;&gt;dcterms:title&lt;/span&gt;&lt;br&gt;&lt;/div&gt;&lt;div&gt;dcterms:description&lt;/div&gt;&lt;div&gt;&lt;span style=&quot;background-color: transparent; color: light-dark(rgb(0, 0, 0), rgb(255, 255, 255));&quot;&gt;(*)&lt;/span&gt;&lt;span style=&quot;background-color: transparent; color: light-dark(rgb(0, 0, 0), rgb(255, 255, 255));&quot;&gt;&amp;nbsp;&lt;/span&gt;dcat:keyword&lt;/div&gt;&lt;div&gt;&lt;span style=&quot;background-color: transparent; color: light-dark(rgb(0, 0, 0), rgb(255, 255, 255));&quot;&gt;(*)&lt;/span&gt;&lt;span style=&quot;background-color: transparent; color: light-dark(rgb(0, 0, 0), rgb(255, 255, 255));&quot;&gt;&amp;nbsp;&lt;/span&gt;dqv:inDimension&lt;/div&gt;&lt;div&gt;&lt;span style=&quot;background-color: transparent; color: light-dark(rgb(0, 0, 0), rgb(255, 255, 255));&quot;&gt;(*)&lt;/span&gt;&lt;span style=&quot;background-color: transparent; color: light-dark(rgb(0, 0, 0), rgb(255, 255, 255));&quot;&gt;&amp;nbsp;&lt;/span&gt;vivo:abbreviation&lt;/div&gt;&lt;div&gt;&lt;span style=&quot;background-color: transparent; color: light-dark(rgb(0, 0, 0), rgb(255, 255, 255));&quot;&gt;(*)&lt;/span&gt;&lt;span style=&quot;background-color: transparent; color: light-dark(rgb(0, 0, 0), rgb(255, 255, 255));&quot;&gt;&amp;nbsp;&lt;/span&gt;dcat:landingPage&lt;/div&gt;&lt;div&gt;&lt;div&gt;&lt;span style=&quot;background-color: transparent; color: light-dark(rgb(0, 0, 0), rgb(255, 255, 255));&quot;&gt;(*)&lt;/span&gt;&lt;span style=&quot;background-color: transparent; color: light-dark(rgb(0, 0, 0), rgb(255, 255, 255));&quot;&gt;&amp;nbsp;&lt;/span&gt;dcat:theme&lt;/div&gt;&lt;div&gt;dcat:version&lt;/div&gt;&lt;div&gt;&lt;span style=&quot;background-color: transparent; color: light-dark(rgb(0, 0, 0), rgb(255, 255, 255));&quot;&gt;(*)&lt;/span&gt;&lt;span style=&quot;background-color: transparent; color: light-dark(rgb(0, 0, 0), rgb(255, 255, 255));&quot;&gt;&amp;nbsp;&lt;/span&gt;ftr:status&lt;/div&gt;&lt;/div&gt;&lt;/span&gt;" style="rounded=0;whiteSpace=wrap;html=1;snapToPoint=1;points=[[0.1,0],[0.2,0],[0.3,0],[0.4,0],[0.5,0],[0.6,0],[0.7,0],[0.8,0],[0.9,0],[0,0.1],[0,0.3],[0,0.5],[0,0.7],[0,0.9],[0.1,1],[0.2,1],[0.3,1],[0.4,1],[0.5,1],[0.6,1],[0.7,1],[0.8,1],[0.9,1],[1,0.1],[1,0.3],[1,0.5],[1,0.7],[1,0.9]];" vertex="1" parent="1">
          <mxGeometry x="820" y="-80" width="179" height="147.25" as="geometry" />
        </mxCell>
        <mxCell id="Yi2zr5Vyh4pYzkWV7ahC-39" value="dqv:Metric" style="rounded=0;whiteSpace=wrap;html=1;snapToPoint=1;points=[[0.1,0],[0.2,0],[0.3,0],[0.4,0],[0.5,0],[0.6,0],[0.7,0],[0.8,0],[0.9,0],[0,0.1],[0,0.3],[0,0.5],[0,0.7],[0,0.9],[0.1,1],[0.2,1],[0.3,1],[0.4,1],[0.5,1],[0.6,1],[0.7,1],[0.8,1],[0.9,1],[1,0.1],[1,0.3],[1,0.5],[1,0.7],[1,0.9]];fillColor=#fff2cc;strokeColor=#d6b656;" vertex="1" parent="1">
          <mxGeometry x="820" y="-110.00000000000011" width="179" height="30" as="geometry" />
        </mxCell>
        <mxCell id="Yi2zr5Vyh4pYzkWV7ahC-40" value="&lt;span style=&quot;text-decoration-skip-ink: none;&quot;&gt;&lt;div&gt;dcterms:identifier&lt;/div&gt;&lt;div&gt;&lt;span style=&quot;background-color: initial;&quot;&gt;dcterms:title&lt;/span&gt;&lt;br&gt;&lt;/div&gt;&lt;div&gt;dcterms:description&lt;/div&gt;&lt;div&gt;&lt;span style=&quot;background-color: transparent; color: light-dark(rgb(0, 0, 0), rgb(255, 255, 255));&quot;&gt;(*)&lt;/span&gt;&lt;span style=&quot;background-color: transparent; color: light-dark(rgb(0, 0, 0), rgb(255, 255, 255));&quot;&gt;&amp;nbsp;&lt;/span&gt;dcat:keyword&lt;/div&gt;&lt;div&gt;&lt;span style=&quot;background-color: transparent; color: light-dark(rgb(0, 0, 0), rgb(255, 255, 255));&quot;&gt;(*)&lt;/span&gt;&lt;span style=&quot;background-color: transparent; color: light-dark(rgb(0, 0, 0), rgb(255, 255, 255));&quot;&gt;&amp;nbsp;&lt;/span&gt;dqv:inDimension&lt;/div&gt;&lt;div&gt;&lt;span style=&quot;background-color: transparent; color: light-dark(rgb(0, 0, 0), rgb(255, 255, 255));&quot;&gt;(*)&lt;/span&gt;&lt;span style=&quot;background-color: transparent; color: light-dark(rgb(0, 0, 0), rgb(255, 255, 255));&quot;&gt;&amp;nbsp;&lt;/span&gt;vivo:abbreviation&lt;/div&gt;&lt;div&gt;&lt;span style=&quot;background-color: transparent; color: light-dark(rgb(0, 0, 0), rgb(255, 255, 255));&quot;&gt;(*)&lt;/span&gt;&lt;span style=&quot;background-color: transparent; color: light-dark(rgb(0, 0, 0), rgb(255, 255, 255));&quot;&gt;&amp;nbsp;&lt;/span&gt;dcat:landingPage&lt;/div&gt;&lt;div&gt;&lt;span style=&quot;background-color: transparent; color: light-dark(rgb(0, 0, 0), rgb(255, 255, 255));&quot;&gt;(*)&lt;/span&gt;&lt;span style=&quot;background-color: transparent; color: light-dark(rgb(0, 0, 0), rgb(255, 255, 255));&quot;&gt;&amp;nbsp;&lt;/span&gt;dcat:theme&lt;/div&gt;&lt;div&gt;dcat:version&lt;/div&gt;&lt;div&gt;&lt;span style=&quot;background-color: transparent; color: light-dark(rgb(0, 0, 0), rgb(255, 255, 255));&quot;&gt;(*)&lt;/span&gt;&lt;span style=&quot;background-color: transparent; color: light-dark(rgb(0, 0, 0), rgb(255, 255, 255));&quot;&gt;&amp;nbsp;&lt;/span&gt;ftr:status&lt;/div&gt;&lt;/span&gt;" style="rounded=0;whiteSpace=wrap;html=1;snapToPoint=1;points=[[0.1,0],[0.2,0],[0.3,0],[0.4,0],[0.5,0],[0.6,0],[0.7,0],[0.8,0],[0.9,0],[0,0.1],[0,0.3],[0,0.5],[0,0.7],[0,0.9],[0.1,1],[0.2,1],[0.3,1],[0.4,1],[0.5,1],[0.6,1],[0.7,1],[0.8,1],[0.9,1],[1,0.1],[1,0.3],[1,0.5],[1,0.7],[1,0.9]];" vertex="1" parent="1">
          <mxGeometry x="1349.5" y="-80" width="179" height="154.5" as="geometry" />
        </mxCell>
        <mxCell id="Yi2zr5Vyh4pYzkWV7ahC-41" value="ftr:Benchmark" style="rounded=0;whiteSpace=wrap;html=1;snapToPoint=1;points=[[0.1,0],[0.2,0],[0.3,0],[0.4,0],[0.5,0],[0.6,0],[0.7,0],[0.8,0],[0.9,0],[0,0.1],[0,0.3],[0,0.5],[0,0.7],[0,0.9],[0.1,1],[0.2,1],[0.3,1],[0.4,1],[0.5,1],[0.6,1],[0.7,1],[0.8,1],[0.9,1],[1,0.1],[1,0.3],[1,0.5],[1,0.7],[1,0.9]];fillColor=#dae8fc;strokeColor=#6c8ebf;" vertex="1" parent="1">
          <mxGeometry x="1349.5" y="-110.00000000000011" width="179" height="30" as="geometry" />
        </mxCell>
        <mxCell id="Yi2zr5Vyh4pYzkWV7ahC-42" value="vcard:fn&lt;br&gt;vcard:organization-name&lt;br&gt;vcard:hasEmail" style="rounded=0;whiteSpace=wrap;html=1;snapToPoint=1;points=[[0.1,0],[0.2,0],[0.3,0],[0.4,0],[0.5,0],[0.6,0],[0.7,0],[0.8,0],[0.9,0],[0,0.1],[0,0.3],[0,0.5],[0,0.7],[0,0.9],[0.1,1],[0.2,1],[0.3,1],[0.4,1],[0.5,1],[0.6,1],[0.7,1],[0.8,1],[0.9,1],[1,0.1],[1,0.3],[1,0.5],[1,0.7],[1,0.9]];" vertex="1" parent="1">
          <mxGeometry x="1100.5" y="320" width="179" height="50" as="geometry" />
        </mxCell>
        <mxCell id="Yi2zr5Vyh4pYzkWV7ahC-43" value="" style="rounded=0;whiteSpace=wrap;html=1;fillColor=none;" vertex="1" parent="1">
          <mxGeometry x="1030" y="545" width="459.5" height="160" as="geometry" />
        </mxCell>
        <mxCell id="Yi2zr5Vyh4pYzkWV7ahC-45" value="dcterms:identifier&lt;br&gt;&lt;div&gt;dcterms:title&lt;br&gt;&lt;div&gt;dcterms:description&lt;/div&gt;&lt;div&gt;&lt;span style=&quot;background-color: transparent; color: light-dark(rgb(0, 0, 0), rgb(255, 255, 255));&quot;&gt;(*)&lt;/span&gt;&lt;span style=&quot;background-color: transparent; color: light-dark(rgb(0, 0, 0), rgb(255, 255, 255));&quot;&gt;&amp;nbsp;&lt;/span&gt;&lt;span style=&quot;font-family: Arial; background-color: initial;&quot;&gt;dcat:endpointDescription&lt;/span&gt;&lt;br&gt;&lt;/div&gt;&lt;div&gt;&lt;span style=&quot;font-size: 12px; color: rgb(0, 0, 0); font-weight: normal; text-decoration: none; font-family: Arial; font-style: normal; text-decoration-skip-ink: none;&quot;&gt;&lt;span style=&quot;background-color: transparent; color: light-dark(rgb(0, 0, 0), rgb(255, 255, 255)); font-family: Helvetica;&quot;&gt;(*)&lt;/span&gt;&lt;span style=&quot;background-color: transparent; color: light-dark(rgb(0, 0, 0), rgb(255, 255, 255)); font-family: Helvetica;&quot;&gt;&amp;nbsp;&lt;/span&gt;dcat&lt;/span&gt;&lt;span style=&quot;font-size: 12px; color: rgb(0, 0, 0); font-weight: normal; text-decoration: none; font-family: Arial; font-style: normal; text-decoration-skip-ink: none;&quot;&gt;:endpointURL&lt;/span&gt;&lt;/div&gt;&lt;div&gt;&lt;span style=&quot;font-size: 12px; color: rgb(0, 0, 0); font-weight: normal; text-decoration: none; font-family: Arial; font-style: normal; text-decoration-skip-ink: none;&quot;&gt;&lt;span style=&quot;background-color: transparent; color: light-dark(rgb(0, 0, 0), rgb(255, 255, 255)); font-family: Helvetica;&quot;&gt;(*)&lt;/span&gt;&lt;span style=&quot;background-color: transparent; color: light-dark(rgb(0, 0, 0), rgb(255, 255, 255)); font-family: Helvetica;&quot;&gt;&amp;nbsp;&lt;/span&gt;dcat:keyword&lt;br&gt;&lt;/span&gt;&lt;/div&gt;&lt;div&gt;&lt;span style=&quot;font-size: 12px; color: rgb(0, 0, 0); font-weight: normal; text-decoration: none; font-family: Arial; font-style: normal; text-decoration-skip-ink: none;&quot;&gt;&lt;div style=&quot;font-family: Helvetica;&quot;&gt;&lt;span style=&quot;color: light-dark(rgb(0, 0, 0), rgb(237, 237, 237)); background-color: transparent;&quot;&gt;(*)&lt;/span&gt;&lt;span style=&quot;color: light-dark(rgb(0, 0, 0), rgb(237, 237, 237)); background-color: transparent;&quot;&gt;&amp;nbsp;&lt;/span&gt;vivo:abbreviation&lt;/div&gt;&lt;/span&gt;&lt;/div&gt;&lt;div&gt;&lt;span style=&quot;font-size: 12px; color: rgb(0, 0, 0); font-weight: normal; text-decoration: none; font-family: Arial; font-style: normal; text-decoration-skip-ink: none;&quot;&gt;&lt;div style=&quot;font-family: Helvetica;&quot;&gt;&lt;span style=&quot;color: light-dark(rgb(0, 0, 0), rgb(237, 237, 237)); background-color: transparent;&quot;&gt;(*)&lt;/span&gt;&lt;span style=&quot;color: light-dark(rgb(0, 0, 0), rgb(237, 237, 237)); background-color: transparent;&quot;&gt;&amp;nbsp;&lt;/span&gt;dqv:inDimension&lt;/div&gt;&lt;/span&gt;&lt;/div&gt;&lt;div&gt;&lt;span style=&quot;background-color: transparent; color: light-dark(rgb(0, 0, 0), rgb(255, 255, 255));&quot;&gt;(*)&lt;/span&gt;&lt;span style=&quot;background-color: transparent; color: light-dark(rgb(0, 0, 0), rgb(255, 255, 255));&quot;&gt;&amp;nbsp;&lt;/span&gt;&lt;span style=&quot;font-family: Arial; background-color: initial;&quot;&gt;doap:repository&lt;/span&gt;&lt;br&gt;&lt;/div&gt;&lt;div&gt;&lt;span style=&quot;text-decoration-skip-ink: none;&quot;&gt;&lt;span style=&quot;background-color: transparent; color: light-dark(rgb(0, 0, 0), rgb(255, 255, 255));&quot;&gt;(*)&lt;/span&gt;&lt;span style=&quot;background-color: transparent; color: light-dark(rgb(0, 0, 0), rgb(255, 255, 255));&quot;&gt;&amp;nbsp;&lt;/span&gt;&lt;font face=&quot;Arial&quot;&gt;dcterms:type&lt;/font&gt;&lt;br&gt;&lt;/span&gt;&lt;/div&gt;&lt;div&gt;&lt;span style=&quot;text-decoration-skip-ink: none;&quot;&gt;&lt;font face=&quot;Arial&quot;&gt;dcterms:license&lt;/font&gt;&lt;br&gt;&lt;/span&gt;&lt;/div&gt;&lt;div&gt;&lt;span style=&quot;text-decoration-skip-ink: none;&quot;&gt;&lt;span style=&quot;background-color: transparent; color: light-dark(rgb(0, 0, 0), rgb(255, 255, 255));&quot;&gt;(*)&lt;/span&gt;&lt;span style=&quot;background-color: transparent; color: light-dark(rgb(0, 0, 0), rgb(255, 255, 255));&quot;&gt;&amp;nbsp;&lt;/span&gt;&lt;font face=&quot;Arial&quot;&gt;dcat:theme&lt;/font&gt;&lt;br&gt;&lt;/span&gt;&lt;/div&gt;&lt;div&gt;&lt;span style=&quot;text-decoration-skip-ink: none;&quot;&gt;&lt;div&gt;&lt;span style=&quot;font-family: Arial; text-decoration-skip-ink: none;&quot;&gt;dcat:version&lt;/span&gt;&lt;/div&gt;&lt;/span&gt;&lt;/div&gt;&lt;div&gt;&lt;span style=&quot;text-decoration-skip-ink: none;&quot;&gt;&lt;span style=&quot;background-color: transparent; color: light-dark(rgb(0, 0, 0), rgb(255, 255, 255));&quot;&gt;(*)&lt;/span&gt;&lt;span style=&quot;background-color: transparent; color: light-dark(rgb(0, 0, 0), rgb(255, 255, 255));&quot;&gt;&amp;nbsp;&lt;/span&gt;&lt;font face=&quot;Arial&quot;&gt;adms:versionNotes&lt;/font&gt;&lt;br&gt;&lt;/span&gt;&lt;/div&gt;&lt;/div&gt;&lt;div&gt;&lt;span style=&quot;text-decoration-skip-ink: none;&quot;&gt;&lt;span style=&quot;background-color: transparent; color: light-dark(rgb(0, 0, 0), rgb(255, 255, 255));&quot;&gt;(*)&lt;/span&gt;&lt;span style=&quot;background-color: transparent; color: light-dark(rgb(0, 0, 0), rgb(255, 255, 255));&quot;&gt;&amp;nbsp;&lt;/span&gt;&lt;font face=&quot;Arial&quot;&gt;ftr:status&lt;/font&gt;&lt;/span&gt;&lt;/div&gt;" style="rounded=0;whiteSpace=wrap;html=1;snapToPoint=1;points=[[0.1,0],[0.2,0],[0.3,0],[0.4,0],[0.5,0],[0.6,0],[0.7,0],[0.8,0],[0.9,0],[0,0.1],[0,0.3],[0,0.5],[0,0.7],[0,0.9],[0.1,1],[0.2,1],[0.3,1],[0.4,1],[0.5,1],[0.6,1],[0.7,1],[0.8,1],[0.9,1],[1,0.1],[1,0.3],[1,0.5],[1,0.7],[1,0.9]];" vertex="1" parent="1">
          <mxGeometry x="1340" y="220.5" width="179" height="219.5" as="geometry" />
        </mxCell>
        <mxCell id="Yi2zr5Vyh4pYzkWV7ahC-46" style="edgeStyle=orthogonalEdgeStyle;rounded=0;orthogonalLoop=1;jettySize=auto;html=1;endArrow=block;endFill=0;" edge="1" parent="1" target="Yi2zr5Vyh4pYzkWV7ahC-34">
          <mxGeometry relative="1" as="geometry">
            <mxPoint x="1340" y="420" as="sourcePoint" />
            <mxPoint x="1210" y="540" as="targetPoint" />
            <Array as="points">
              <mxPoint x="1340" y="420" />
              <mxPoint x="1190" y="420" />
            </Array>
          </mxGeometry>
        </mxCell>
        <mxCell id="Yi2zr5Vyh4pYzkWV7ahC-48" value="ftr:Algorithm" style="rounded=0;whiteSpace=wrap;html=1;snapToPoint=1;points=[[0.1,0],[0.2,0],[0.3,0],[0.4,0],[0.5,0],[0.6,0],[0.7,0],[0.8,0],[0.9,0],[0,0.1],[0,0.3],[0,0.5],[0,0.7],[0,0.9],[0.1,1],[0.2,1],[0.3,1],[0.4,1],[0.5,1],[0.6,1],[0.7,1],[0.8,1],[0.9,1],[1,0.1],[1,0.3],[1,0.5],[1,0.7],[1,0.9]];fillColor=#dae8fc;strokeColor=#6c8ebf;" vertex="1" parent="1">
          <mxGeometry x="1340" y="190.4999999999999" width="179" height="30" as="geometry" />
        </mxCell>
        <mxCell id="Yi2zr5Vyh4pYzkWV7ahC-50" style="edgeStyle=orthogonalEdgeStyle;rounded=0;orthogonalLoop=1;jettySize=auto;html=1;exitX=0.6;exitY=0;exitDx=0;exitDy=0;entryX=0;entryY=0.5;entryDx=0;entryDy=0;endArrow=block;endFill=0;" edge="1" parent="1" source="Yi2zr5Vyh4pYzkWV7ahC-10" target="Yi2zr5Vyh4pYzkWV7ahC-19">
          <mxGeometry relative="1" as="geometry">
            <mxPoint x="599.5" y="562" as="sourcePoint" />
            <mxPoint x="600.5" y="530" as="targetPoint" />
          </mxGeometry>
        </mxCell>
        <mxCell id="Yi2zr5Vyh4pYzkWV7ahC-51" style="edgeStyle=orthogonalEdgeStyle;rounded=0;orthogonalLoop=1;jettySize=auto;html=1;entryX=1;entryY=0.5;entryDx=0;entryDy=0;endArrow=block;endFill=0;exitX=0.2;exitY=0;exitDx=0;exitDy=0;" edge="1" parent="1" source="Yi2zr5Vyh4pYzkWV7ahC-14" target="Yi2zr5Vyh4pYzkWV7ahC-19">
          <mxGeometry relative="1" as="geometry">
            <mxPoint x="800" y="580" as="sourcePoint" />
            <mxPoint x="791" y="520" as="targetPoint" />
          </mxGeometry>
        </mxCell>
        <mxCell id="Yi2zr5Vyh4pYzkWV7ahC-52" value="&lt;div&gt;sio:is-implementation-of&amp;nbsp;&lt;/div&gt;&lt;div&gt;(sio:SIO_000233)&lt;/div&gt;" style="edgeStyle=orthogonalEdgeStyle;rounded=0;orthogonalLoop=1;jettySize=auto;html=1;entryX=0.3;entryY=1;entryDx=0;entryDy=0;" edge="1" parent="1" target="Yi2zr5Vyh4pYzkWV7ahC-40">
          <mxGeometry x="-0.2583" relative="1" as="geometry">
            <mxPoint x="1688.5" y="-50" as="targetPoint" />
            <Array as="points">
              <mxPoint x="1403.5" y="158" />
              <mxPoint x="1403.5" y="54" />
            </Array>
            <mxPoint x="1403.5" y="190" as="sourcePoint" />
            <mxPoint as="offset" />
          </mxGeometry>
        </mxCell>
        <mxCell id="Yi2zr5Vyh4pYzkWV7ahC-53" value="&lt;div style=&quot;forced-color-adjust: none; color: rgb(0, 0, 0); font-family: Helvetica; font-size: 11px; font-style: normal; font-variant-ligatures: normal; font-variant-caps: normal; font-weight: 400; letter-spacing: normal; orphans: 2; text-align: center; text-indent: 0px; text-transform: none; widows: 2; word-spacing: 0px; -webkit-text-stroke-width: 0px; white-space: nowrap; text-decoration-thickness: initial; text-decoration-style: initial; text-decoration-color: initial;&quot;&gt;&lt;span style=&quot;background-color: rgb(251, 251, 251); font-size: 12px; text-wrap-mode: wrap; color: light-dark(rgb(0, 0, 0), rgb(255, 255, 255));&quot;&gt;(*)&lt;/span&gt;&lt;span style=&quot;background-color: rgb(251, 251, 251); font-size: 12px; text-wrap-mode: wrap; color: light-dark(rgb(0, 0, 0), rgb(255, 255, 255));&quot;&gt;&amp;nbsp;&lt;/span&gt;sio:has-implementation&amp;nbsp;&lt;/div&gt;&lt;div style=&quot;forced-color-adjust: none; color: rgb(0, 0, 0); font-family: Helvetica; font-size: 11px; font-style: normal; font-variant-ligatures: normal; font-variant-caps: normal; font-weight: 400; letter-spacing: normal; orphans: 2; text-align: center; text-indent: 0px; text-transform: none; widows: 2; word-spacing: 0px; -webkit-text-stroke-width: 0px; white-space: nowrap; text-decoration-thickness: initial; text-decoration-style: initial; text-decoration-color: initial;&quot;&gt;(sio:SIO_000234)&lt;/div&gt;" style="edgeStyle=orthogonalEdgeStyle;rounded=0;orthogonalLoop=1;jettySize=auto;html=1;exitX=0.7;exitY=1;exitDx=0;exitDy=0;" edge="1" parent="1" source="Yi2zr5Vyh4pYzkWV7ahC-40">
          <mxGeometry x="-0.3906" relative="1" as="geometry">
            <mxPoint x="1474.5" y="191" as="targetPoint" />
            <Array as="points">
              <mxPoint x="1474.5" y="113" />
              <mxPoint x="1474.5" y="113" />
              <mxPoint x="1474.5" y="191" />
            </Array>
            <mxPoint as="offset" />
            <mxPoint x="1774.5" y="-50" as="sourcePoint" />
          </mxGeometry>
        </mxCell>
        <mxCell id="Yi2zr5Vyh4pYzkWV7ahC-55" value="" style="edgeStyle=orthogonalEdgeStyle;rounded=0;orthogonalLoop=1;jettySize=auto;html=1;entryX=0.5;entryY=0;entryDx=0;entryDy=0;" edge="1" parent="1" target="Yi2zr5Vyh4pYzkWV7ahC-35">
          <mxGeometry relative="1" as="geometry">
            <mxPoint x="1350" y="50" as="sourcePoint" />
            <mxPoint x="1379.6666666666667" y="-110" as="targetPoint" />
            <Array as="points">
              <mxPoint x="1350" y="50" />
              <mxPoint x="1190" y="50" />
            </Array>
          </mxGeometry>
        </mxCell>
        <mxCell id="Yi2zr5Vyh4pYzkWV7ahC-56" value="" style="edgeStyle=orthogonalEdgeStyle;rounded=0;orthogonalLoop=1;jettySize=auto;html=1;entryX=0.5;entryY=0;entryDx=0;entryDy=0;startArrow=none;startFill=0;exitX=0.993;exitY=0.067;exitDx=0;exitDy=0;exitPerimeter=0;" edge="1" parent="1" source="Yi2zr5Vyh4pYzkWV7ahC-31" target="Yi2zr5Vyh4pYzkWV7ahC-35">
          <mxGeometry relative="1" as="geometry">
            <mxPoint x="1020" y="290" as="sourcePoint" />
            <mxPoint x="1070" y="-20" as="targetPoint" />
            <Array as="points">
              <mxPoint x="1020" y="241" />
              <mxPoint x="1220" y="240" />
            </Array>
          </mxGeometry>
        </mxCell>
        <mxCell id="Yi2zr5Vyh4pYzkWV7ahC-57" value="" style="edgeStyle=orthogonalEdgeStyle;rounded=0;orthogonalLoop=1;jettySize=auto;html=1;entryX=0.5;entryY=0;entryDx=0;entryDy=0;exitX=0;exitY=0.1;exitDx=0;exitDy=0;" edge="1" parent="1" source="Yi2zr5Vyh4pYzkWV7ahC-45" target="Yi2zr5Vyh4pYzkWV7ahC-35">
          <mxGeometry relative="1" as="geometry">
            <mxPoint x="1420" y="240" as="sourcePoint" />
            <mxPoint x="1419.6666666666667" y="332.25" as="targetPoint" />
            <Array as="points">
              <mxPoint x="1340" y="240" />
              <mxPoint x="1190" y="240" />
            </Array>
          </mxGeometry>
        </mxCell>
        <mxCell id="Yi2zr5Vyh4pYzkWV7ahC-58" value="&lt;span style=&quot;font-size: 12px; text-wrap-mode: wrap; background-color: rgb(251, 251, 251);&quot;&gt;(*)&amp;nbsp;&lt;/span&gt;dcterms:creator&lt;br&gt;&lt;div&gt;dcat:contactPoint&lt;/div&gt;" style="edgeLabel;html=1;align=center;verticalAlign=middle;resizable=0;points=[];" connectable="0" vertex="1" parent="Yi2zr5Vyh4pYzkWV7ahC-57">
          <mxGeometry x="0.8433" y="2" relative="1" as="geometry">
            <mxPoint x="-2" y="-21" as="offset" />
          </mxGeometry>
        </mxCell>
        <mxCell id="RZt1C_hRGX9ls-T8pWx8-1" value="ftr:hasAssociatedMetric" style="edgeStyle=orthogonalEdgeStyle;rounded=0;orthogonalLoop=1;jettySize=auto;html=1;entryX=0.998;entryY=0.333;entryDx=0;entryDy=0;exitX=0.002;exitY=0.331;exitDx=0;exitDy=0;exitPerimeter=0;entryPerimeter=0;" edge="1" parent="1" source="Yi2zr5Vyh4pYzkWV7ahC-40" target="Yi2zr5Vyh4pYzkWV7ahC-38">
          <mxGeometry relative="1" as="geometry">
            <mxPoint x="1400.5" y="-28" as="sourcePoint" />
            <Array as="points">
              <mxPoint x="1350" y="-31" />
            </Array>
            <mxPoint x="968.5" y="-30" as="targetPoint" />
          </mxGeometry>
        </mxCell>
        <mxCell id="RZt1C_hRGX9ls-T8pWx8-2" value="&lt;span style=&quot;font-size: 12px; text-wrap-mode: wrap; background-color: rgb(251, 251, 251);&quot;&gt;(*)&amp;nbsp;&lt;/span&gt;ftr:hasBenchmark" style="edgeStyle=orthogonalEdgeStyle;rounded=0;orthogonalLoop=1;jettySize=auto;html=1;entryX=0.003;entryY=0.518;entryDx=0;entryDy=0;entryPerimeter=0;exitX=1.001;exitY=0.544;exitDx=0;exitDy=0;exitPerimeter=0;" edge="1" parent="1" source="Yi2zr5Vyh4pYzkWV7ahC-38" target="Yi2zr5Vyh4pYzkWV7ahC-40">
          <mxGeometry relative="1" as="geometry">
            <mxPoint x="1000" as="sourcePoint" />
            <Array as="points">
              <mxPoint x="1200" />
            </Array>
            <mxPoint x="1400.5" y="-10" as="targetPoint" />
          </mxGeometry>
        </mxCell>
        <mxCell id="RZt1C_hRGX9ls-T8pWx8-4" value="(*)&amp;nbsp; &amp;nbsp;Not mandatory" style="text;html=1;align=center;verticalAlign=middle;resizable=0;points=[];autosize=1;strokeColor=none;fillColor=none;" vertex="1" parent="1">
          <mxGeometry x="1350" y="640" width="120" height="30" as="geometry" />
        </mxCell>
      </root>
    </mxGraphModel>
  </diagram>
  <diagram id="4Xufp0lS-zNfcQRVwrhu" name="v7">
    <mxGraphModel grid="1" page="1" gridSize="10" guides="1" tooltips="1" connect="1" arrows="1" fold="1" pageScale="1" pageWidth="827" pageHeight="1169" math="0" shadow="0">
      <root>
        <mxCell id="0" />
        <mxCell id="1" parent="0" />
        <mxCell id="O977XMkRyjqQzKdxgLS7-1" value="" style="endArrow=block;html=1;fontColor=#000099;exitX=0.5;exitY=1;exitDx=0;exitDy=0;endFill=0;entryX=0.5;entryY=0;entryDx=0;entryDy=0;endSize=8;arcSize=0;rounded=0;" edge="1" parent="1" source="O977XMkRyjqQzKdxgLS7-9" target="O977XMkRyjqQzKdxgLS7-2">
          <mxGeometry width="50" height="50" relative="1" as="geometry">
            <mxPoint x="295" y="565" as="sourcePoint" />
            <mxPoint x="452.9999999999893" y="565" as="targetPoint" />
          </mxGeometry>
        </mxCell>
        <mxCell id="O977XMkRyjqQzKdxgLS7-2" value="prov:Collection" style="rounded=0;whiteSpace=wrap;html=1;snapToPoint=1;points=[[0.1,0],[0.2,0],[0.3,0],[0.4,0],[0.5,0],[0.6,0],[0.7,0],[0.8,0],[0.9,0],[0,0.1],[0,0.3],[0,0.5],[0,0.7],[0,0.9],[0.1,1],[0.2,1],[0.3,1],[0.4,1],[0.5,1],[0.6,1],[0.7,1],[0.8,1],[0.9,1],[1,0.1],[1,0.3],[1,0.5],[1,0.7],[1,0.9]];fillColor=#fff2cc;strokeColor=#d6b656;" vertex="1" parent="1">
          <mxGeometry x="469.5" y="740" width="100" height="30" as="geometry" />
        </mxCell>
        <mxCell id="O977XMkRyjqQzKdxgLS7-3" value="" style="endArrow=classic;html=1;endSize=8;arcSize=0;rounded=0;" edge="1" parent="1" source="O977XMkRyjqQzKdxgLS7-9">
          <mxGeometry width="50" height="50" relative="1" as="geometry">
            <mxPoint x="670" y="680" as="sourcePoint" />
            <mxPoint x="779" y="665" as="targetPoint" />
          </mxGeometry>
        </mxCell>
        <mxCell id="O977XMkRyjqQzKdxgLS7-4" value="prov:hadMember" style="text;html=1;align=center;verticalAlign=middle;resizable=0;points=[];labelBackgroundColor=#ffffff;" connectable="0" vertex="1" parent="O977XMkRyjqQzKdxgLS7-3">
          <mxGeometry x="-0.1269" relative="1" as="geometry">
            <mxPoint x="1" as="offset" />
          </mxGeometry>
        </mxCell>
        <mxCell id="O977XMkRyjqQzKdxgLS7-5" value="&lt;div&gt;&lt;b&gt;prov&lt;/b&gt;: http://www.w3.org/ns/prov#&lt;/div&gt;&lt;div&gt;&lt;b&gt;ftr:&lt;/b&gt; https://w3id.org/ftr#&lt;br&gt;&lt;b&gt;dcat&lt;/b&gt;: https://www.w3.org/ns/dcat#&lt;/div&gt;&lt;div&gt;&lt;b&gt;sio&lt;/b&gt;: http://semanticscience.org/resource/&lt;br&gt;&lt;/div&gt;&lt;b&gt;dcterms&lt;/b&gt;: http://purl.org/dc/terms/&lt;div&gt;&lt;b&gt;doap:&amp;nbsp;&lt;/b&gt;&lt;span style=&quot;background-color: initial;&quot;&gt;http://usefulinc.com/ns/doap#&lt;/span&gt;&lt;/div&gt;&lt;div&gt;&lt;b&gt;adms&lt;/b&gt;: http://www.w3.org/ns/adms#&lt;/div&gt;&lt;div&gt;&lt;b&gt;vivo&lt;/b&gt;:&amp;nbsp;http://vivoweb.org/ontology/core#&lt;/div&gt;" style="shape=note;whiteSpace=wrap;html=1;backgroundOutline=1;darkOpacity=0.05;" vertex="1" parent="1">
          <mxGeometry x="1089.5" y="525" width="290" height="120" as="geometry" />
        </mxCell>
        <mxCell id="O977XMkRyjqQzKdxgLS7-9" value="dcterms:identifier&lt;br&gt;dcterms:title&lt;br&gt;dcterms:license" style="rounded=0;whiteSpace=wrap;html=1;snapToPoint=1;points=[[0.1,0],[0.2,0],[0.3,0],[0.4,0],[0.5,0],[0.6,0],[0.7,0],[0.8,0],[0.9,0],[0,0.1],[0,0.3],[0,0.5],[0,0.7],[0,0.9],[0.1,1],[0.2,1],[0.3,1],[0.4,1],[0.5,1],[0.6,1],[0.7,1],[0.8,1],[0.9,1],[1,0.1],[1,0.3],[1,0.5],[1,0.7],[1,0.9]];" vertex="1" parent="1">
          <mxGeometry x="430" y="635" width="179" height="60" as="geometry" />
        </mxCell>
        <mxCell id="IQfZ5sxZ5BrBiyIhkcGK-7" value="" style="edgeStyle=orthogonalEdgeStyle;rounded=0;orthogonalLoop=1;jettySize=auto;html=1;exitX=0.8;exitY=0;exitDx=0;exitDy=0;entryX=0.5;entryY=1;entryDx=0;entryDy=0;" edge="1" parent="1" source="O977XMkRyjqQzKdxgLS7-10" target="O977XMkRyjqQzKdxgLS7-21">
          <mxGeometry relative="1" as="geometry">
            <Array as="points">
              <mxPoint x="570" y="605" />
              <mxPoint x="570" y="590" />
              <mxPoint x="675" y="590" />
            </Array>
          </mxGeometry>
        </mxCell>
        <mxCell id="IQfZ5sxZ5BrBiyIhkcGK-9" value="" style="edgeStyle=orthogonalEdgeStyle;rounded=0;orthogonalLoop=1;jettySize=auto;html=1;entryX=0;entryY=0.5;entryDx=0;entryDy=0;exitX=0.1;exitY=0;exitDx=0;exitDy=0;" edge="1" parent="1" source="O977XMkRyjqQzKdxgLS7-10" target="O977XMkRyjqQzKdxgLS7-20">
          <mxGeometry relative="1" as="geometry">
            <mxPoint x="799" y="625.1428571428573" as="targetPoint" />
            <Array as="points">
              <mxPoint x="508" y="395" />
            </Array>
          </mxGeometry>
        </mxCell>
        <mxCell id="IQfZ5sxZ5BrBiyIhkcGK-10" value="prov:wasGeneratedBy" style="edgeLabel;html=1;align=center;verticalAlign=middle;resizable=0;points=[];" connectable="0" vertex="1" parent="IQfZ5sxZ5BrBiyIhkcGK-9">
          <mxGeometry x="-0.0599" y="-1" relative="1" as="geometry">
            <mxPoint as="offset" />
          </mxGeometry>
        </mxCell>
        <mxCell id="O977XMkRyjqQzKdxgLS7-10" value="ftr:TestResultSet" style="rounded=0;whiteSpace=wrap;html=1;snapToPoint=1;points=[[0.1,0],[0.2,0],[0.3,0],[0.4,0],[0.5,0],[0.6,0],[0.7,0],[0.8,0],[0.9,0],[0,0.1],[0,0.3],[0,0.5],[0,0.7],[0,0.9],[0.1,1],[0.2,1],[0.3,1],[0.4,1],[0.5,1],[0.6,1],[0.7,1],[0.8,1],[0.9,1],[1,0.1],[1,0.3],[1,0.5],[1,0.7],[1,0.9]];fillColor=#dae8fc;strokeColor=#6c8ebf;" vertex="1" parent="1">
          <mxGeometry x="430" y="604.9999999999999" width="179" height="30" as="geometry" />
        </mxCell>
        <mxCell id="O977XMkRyjqQzKdxgLS7-11" value="prov:wasDerivedFrom" style="edgeStyle=orthogonalEdgeStyle;rounded=0;orthogonalLoop=1;jettySize=auto;html=1;entryX=0.5;entryY=1;entryDx=0;entryDy=0;exitX=0.1;exitY=0;exitDx=0;exitDy=0;" edge="1" parent="1" source="O977XMkRyjqQzKdxgLS7-15" target="O977XMkRyjqQzKdxgLS7-21">
          <mxGeometry x="0.7297" relative="1" as="geometry">
            <mxPoint as="offset" />
            <mxPoint x="900" y="800" as="sourcePoint" />
            <Array as="points">
              <mxPoint x="798" y="590" />
              <mxPoint x="675" y="590" />
            </Array>
          </mxGeometry>
        </mxCell>
        <mxCell id="O977XMkRyjqQzKdxgLS7-13" value="ftr:outputFromTest" style="edgeStyle=orthogonalEdgeStyle;rounded=0;orthogonalLoop=1;jettySize=auto;html=1;exitX=0.839;exitY=-0.012;exitDx=0;exitDy=0;exitPerimeter=0;" edge="1" parent="1" source="O977XMkRyjqQzKdxgLS7-15" target="O977XMkRyjqQzKdxgLS7-30">
          <mxGeometry relative="1" as="geometry">
            <Array as="points">
              <mxPoint x="930" y="530" />
              <mxPoint x="931" y="530" />
            </Array>
          </mxGeometry>
        </mxCell>
        <mxCell id="O977XMkRyjqQzKdxgLS7-14" value="dcterms:identifier&lt;br&gt;&lt;div&gt;dcterms:title&lt;br&gt;&lt;/div&gt;&lt;div&gt;dcterms:description&lt;/div&gt;&lt;div&gt;dcterms:license&lt;br&gt;&lt;/div&gt;ftr:status&lt;br&gt;ftr:log&lt;br&gt;ftr:completion&lt;br&gt;ftr:affectedElements" style="rounded=0;whiteSpace=wrap;html=1;snapToPoint=1;points=[[0.1,0],[0.2,0],[0.3,0],[0.4,0],[0.5,0],[0.6,0],[0.7,0],[0.8,0],[0.9,0],[0,0.1],[0,0.3],[0,0.5],[0,0.7],[0,0.9],[0.1,1],[0.2,1],[0.3,1],[0.4,1],[0.5,1],[0.6,1],[0.7,1],[0.8,1],[0.9,1],[1,0.1],[1,0.3],[1,0.5],[1,0.7],[1,0.9]];" vertex="1" parent="1">
          <mxGeometry x="780" y="640" width="179" height="130" as="geometry" />
        </mxCell>
        <mxCell id="O977XMkRyjqQzKdxgLS7-15" value="ftr:TestResult" style="rounded=0;whiteSpace=wrap;html=1;snapToPoint=1;points=[[0.1,0],[0.2,0],[0.3,0],[0.4,0],[0.5,0],[0.6,0],[0.7,0],[0.8,0],[0.9,0],[0,0.1],[0,0.3],[0,0.5],[0,0.7],[0,0.9],[0.1,1],[0.2,1],[0.3,1],[0.4,1],[0.5,1],[0.6,1],[0.7,1],[0.8,1],[0.9,1],[1,0.1],[1,0.3],[1,0.5],[1,0.7],[1,0.9]];fillColor=#dae8fc;strokeColor=#6c8ebf;" vertex="1" parent="1">
          <mxGeometry x="780" y="609.9999999999999" width="179" height="30" as="geometry" />
        </mxCell>
        <mxCell id="O977XMkRyjqQzKdxgLS7-17" style="edgeStyle=orthogonalEdgeStyle;rounded=0;orthogonalLoop=1;jettySize=auto;html=1;exitX=0.5;exitY=0;exitDx=0;exitDy=0;entryX=0.5;entryY=1;entryDx=0;entryDy=0;endArrow=block;endFill=0;" edge="1" parent="1" source="O977XMkRyjqQzKdxgLS7-20" target="O977XMkRyjqQzKdxgLS7-22">
          <mxGeometry relative="1" as="geometry" />
        </mxCell>
        <mxCell id="O977XMkRyjqQzKdxgLS7-18" value="prov:generated" style="edgeStyle=orthogonalEdgeStyle;rounded=0;orthogonalLoop=1;jettySize=auto;html=1;exitX=0.9;exitY=1;exitDx=0;exitDy=0;" edge="1" parent="1" source="O977XMkRyjqQzKdxgLS7-23">
          <mxGeometry x="-0.1845" relative="1" as="geometry">
            <mxPoint x="877" y="610" as="targetPoint" />
            <Array as="points">
              <mxPoint x="698" y="480" />
              <mxPoint x="877" y="480" />
            </Array>
            <mxPoint as="offset" />
          </mxGeometry>
        </mxCell>
        <mxCell id="O977XMkRyjqQzKdxgLS7-19" value="prov:wasAssociatedWith" style="edgeStyle=orthogonalEdgeStyle;rounded=0;orthogonalLoop=1;jettySize=auto;html=1;exitX=1;exitY=0.5;exitDx=0;exitDy=0;entryX=-0.006;entryY=0.599;entryDx=0;entryDy=0;entryPerimeter=0;" edge="1" parent="1" source="O977XMkRyjqQzKdxgLS7-20" target="O977XMkRyjqQzKdxgLS7-30">
          <mxGeometry relative="1" as="geometry">
            <Array as="points">
              <mxPoint x="778" y="395" />
              <mxPoint x="778" y="360" />
            </Array>
          </mxGeometry>
        </mxCell>
        <mxCell id="O977XMkRyjqQzKdxgLS7-20" value="ftr:TestExecutionActivity" style="rounded=0;whiteSpace=wrap;html=1;snapToPoint=1;points=[[0.1,0],[0.2,0],[0.3,0],[0.4,0],[0.5,0],[0.6,0],[0.7,0],[0.8,0],[0.9,0],[0,0.1],[0,0.3],[0,0.5],[0,0.7],[0,0.9],[0.1,1],[0.2,1],[0.3,1],[0.4,1],[0.5,1],[0.6,1],[0.7,1],[0.8,1],[0.9,1],[1,0.1],[1,0.3],[1,0.5],[1,0.7],[1,0.9]];fillColor=#dae8fc;strokeColor=#6c8ebf;" vertex="1" parent="1">
          <mxGeometry x="544.5" y="380" width="170" height="30" as="geometry" />
        </mxCell>
        <mxCell id="O977XMkRyjqQzKdxgLS7-21" value="prov:Entity" style="rounded=0;whiteSpace=wrap;html=1;snapToPoint=1;points=[[0.1,0],[0.2,0],[0.3,0],[0.4,0],[0.5,0],[0.6,0],[0.7,0],[0.8,0],[0.9,0],[0,0.1],[0,0.3],[0,0.5],[0,0.7],[0,0.9],[0.1,1],[0.2,1],[0.3,1],[0.4,1],[0.5,1],[0.6,1],[0.7,1],[0.8,1],[0.9,1],[1,0.1],[1,0.3],[1,0.5],[1,0.7],[1,0.9]];fillColor=#fff2cc;strokeColor=#d6b656;" vertex="1" parent="1">
          <mxGeometry x="631" y="520" width="88" height="30" as="geometry" />
        </mxCell>
        <mxCell id="O977XMkRyjqQzKdxgLS7-22" value="prov:Activity" style="rounded=0;whiteSpace=wrap;html=1;snapToPoint=1;points=[[0.1,0],[0.2,0],[0.3,0],[0.4,0],[0.5,0],[0.6,0],[0.7,0],[0.8,0],[0.9,0],[0,0.1],[0,0.3],[0,0.5],[0,0.7],[0,0.9],[0.1,1],[0.2,1],[0.3,1],[0.4,1],[0.5,1],[0.6,1],[0.7,1],[0.8,1],[0.9,1],[1,0.1],[1,0.3],[1,0.5],[1,0.7],[1,0.9]];fillColor=#fff2cc;strokeColor=#d6b656;" vertex="1" parent="1">
          <mxGeometry x="580" y="317.75" width="100" height="30" as="geometry" />
        </mxCell>
        <mxCell id="IQfZ5sxZ5BrBiyIhkcGK-6" value="" style="edgeStyle=orthogonalEdgeStyle;rounded=0;orthogonalLoop=1;jettySize=auto;html=1;" edge="1" parent="1" source="O977XMkRyjqQzKdxgLS7-23" target="O977XMkRyjqQzKdxgLS7-21">
          <mxGeometry relative="1" as="geometry" />
        </mxCell>
        <mxCell id="IQfZ5sxZ5BrBiyIhkcGK-11" value="prov:used" style="edgeLabel;html=1;align=center;verticalAlign=middle;resizable=0;points=[];" connectable="0" vertex="1" parent="IQfZ5sxZ5BrBiyIhkcGK-6">
          <mxGeometry x="-0.5022" y="2" relative="1" as="geometry">
            <mxPoint y="-7" as="offset" />
          </mxGeometry>
        </mxCell>
        <mxCell id="O977XMkRyjqQzKdxgLS7-23" value="" style="rounded=0;whiteSpace=wrap;html=1;snapToPoint=1;points=[[0.1,0],[0.2,0],[0.3,0],[0.4,0],[0.5,0],[0.6,0],[0.7,0],[0.8,0],[0.9,0],[0,0.1],[0,0.3],[0,0.5],[0,0.7],[0,0.9],[0.1,1],[0.2,1],[0.3,1],[0.4,1],[0.5,1],[0.6,1],[0.7,1],[0.8,1],[0.9,1],[1,0.1],[1,0.3],[1,0.5],[1,0.7],[1,0.9]];" vertex="1" parent="1">
          <mxGeometry x="544.5" y="410" width="170" height="30" as="geometry" />
        </mxCell>
        <mxCell id="O977XMkRyjqQzKdxgLS7-24" value="" style="whiteSpace=wrap;html=1;aspect=fixed;fillColor=#dae8fc;strokeColor=#6c8ebf;" vertex="1" parent="1">
          <mxGeometry x="1407" y="540.5" width="19" height="19" as="geometry" />
        </mxCell>
        <mxCell id="O977XMkRyjqQzKdxgLS7-25" value="" style="whiteSpace=wrap;html=1;aspect=fixed;fillColor=#fff2cc;strokeColor=#d6b656;" vertex="1" parent="1">
          <mxGeometry x="1407" y="570.5" width="19" height="19" as="geometry" />
        </mxCell>
        <mxCell id="O977XMkRyjqQzKdxgLS7-26" value="Proposed classes " style="text;html=1;align=left;verticalAlign=middle;whiteSpace=wrap;rounded=0;" vertex="1" parent="1">
          <mxGeometry x="1430" y="535" width="100" height="30" as="geometry" />
        </mxCell>
        <mxCell id="O977XMkRyjqQzKdxgLS7-27" value="Reused classes" style="text;html=1;align=left;verticalAlign=middle;whiteSpace=wrap;rounded=0;" vertex="1" parent="1">
          <mxGeometry x="1431" y="565" width="89" height="30" as="geometry" />
        </mxCell>
        <mxCell id="O977XMkRyjqQzKdxgLS7-28" value="&lt;div&gt;sio:is-implementation-of&amp;nbsp;&lt;/div&gt;&lt;div&gt;(sio:SIO_000233)&lt;/div&gt;" style="edgeStyle=orthogonalEdgeStyle;rounded=0;orthogonalLoop=1;jettySize=auto;html=1;exitX=0.2;exitY=0;exitDx=0;exitDy=0;entryX=0.3;entryY=1;entryDx=0;entryDy=0;" edge="1" parent="1" source="O977XMkRyjqQzKdxgLS7-32" target="XY5-7ztARllsN5n1UTWX-1">
          <mxGeometry x="-0.2583" relative="1" as="geometry">
            <mxPoint x="1140" y="305" as="targetPoint" />
            <Array as="points">
              <mxPoint x="874" y="195" />
              <mxPoint x="874" y="91" />
            </Array>
            <mxPoint as="offset" />
          </mxGeometry>
        </mxCell>
        <mxCell id="IQfZ5sxZ5BrBiyIhkcGK-19" value="" style="edgeStyle=orthogonalEdgeStyle;rounded=0;orthogonalLoop=1;jettySize=auto;html=1;exitX=1;exitY=0.7;exitDx=0;exitDy=0;entryX=0.5;entryY=1;entryDx=0;entryDy=0;jumpStyle=arc;startArrow=none;startFill=0;" edge="1" parent="1" source="XY5-7ztARllsN5n1UTWX-1" target="XY5-7ztARllsN5n1UTWX-19">
          <mxGeometry relative="1" as="geometry">
            <mxPoint x="1100" y="333" as="targetPoint" />
            <Array as="points">
              <mxPoint x="999" y="-57" />
              <mxPoint x="1110" y="-57" />
              <mxPoint x="1110" y="250" />
              <mxPoint x="1219" y="250" />
            </Array>
          </mxGeometry>
        </mxCell>
        <mxCell id="IQfZ5sxZ5BrBiyIhkcGK-23" value="" style="edgeStyle=orthogonalEdgeStyle;rounded=0;orthogonalLoop=1;jettySize=auto;html=1;entryX=0.5;entryY=0;entryDx=0;entryDy=0;startArrow=none;startFill=0;" edge="1" parent="1" target="O977XMkRyjqQzKdxgLS7-35">
          <mxGeometry relative="1" as="geometry">
            <mxPoint x="1000" y="-120" as="sourcePoint" />
            <mxPoint x="1220" y="50" as="targetPoint" />
            <Array as="points">
              <mxPoint x="1219" y="-120" />
            </Array>
          </mxGeometry>
        </mxCell>
        <mxCell id="O977XMkRyjqQzKdxgLS7-30" value="dcterms:identifier&lt;div&gt;dcterms:title&lt;br&gt;&lt;div&gt;dcterms:description&lt;/div&gt;&lt;div&gt;&lt;span style=&quot;font-family: Arial; background-color: initial;&quot;&gt;dcat:endpointDescription&lt;/span&gt;&lt;br&gt;&lt;/div&gt;&lt;div&gt;&lt;span style=&quot;font-size:12px;color:#000000;font-weight:normal;text-decoration:none;font-family:&#39;Arial&#39;;font-style:normal;text-decoration-skip-ink:none;&quot;&gt;dcat&lt;/span&gt;&lt;span style=&quot;font-size:12px;color:#000000;font-weight:normal;text-decoration:none;font-family:&#39;Arial&#39;;font-style:normal;text-decoration-skip-ink:none;&quot;&gt;:endpointURL&lt;/span&gt;&lt;/div&gt;&lt;div&gt;&lt;span style=&quot;font-size:12px;color:#000000;font-weight:normal;text-decoration:none;font-family:&#39;Arial&#39;;font-style:normal;text-decoration-skip-ink:none;&quot;&gt;dcat:keyword&lt;br&gt;&lt;/span&gt;&lt;/div&gt;&lt;div&gt;&lt;span style=&quot;font-size:12px;color:#000000;font-weight:normal;text-decoration:none;font-family:&#39;Arial&#39;;font-style:normal;text-decoration-skip-ink:none;&quot;&gt;&lt;div style=&quot;font-family: Helvetica;&quot;&gt;vivo:abbreviation&lt;/div&gt;&lt;/span&gt;&lt;/div&gt;&lt;div&gt;&lt;span style=&quot;font-size:12px;color:#000000;font-weight:normal;text-decoration:none;font-family:&#39;Arial&#39;;font-style:normal;text-decoration-skip-ink:none;&quot;&gt;&lt;div style=&quot;font-family: Helvetica;&quot;&gt;dqv:inDimension&lt;/div&gt;&lt;/span&gt;&lt;/div&gt;&lt;div&gt;&lt;span style=&quot;font-family: Arial; background-color: initial;&quot;&gt;doap:repository&lt;/span&gt;&lt;br&gt;&lt;/div&gt;&lt;div&gt;&lt;span style=&quot;text-decoration-skip-ink: none;&quot;&gt;&lt;font face=&quot;Arial&quot;&gt;dcterms:type&lt;/font&gt;&lt;br&gt;&lt;/span&gt;&lt;/div&gt;&lt;div&gt;&lt;span style=&quot;text-decoration-skip-ink: none;&quot;&gt;&lt;font face=&quot;Arial&quot;&gt;dcterms:license&lt;/font&gt;&lt;br&gt;&lt;/span&gt;&lt;/div&gt;&lt;div&gt;&lt;span style=&quot;text-decoration-skip-ink: none;&quot;&gt;&lt;font face=&quot;Arial&quot;&gt;dcat:theme&lt;/font&gt;&lt;br&gt;&lt;/span&gt;&lt;/div&gt;&lt;div&gt;&lt;span style=&quot;text-decoration-skip-ink: none;&quot;&gt;&lt;div&gt;&lt;span style=&quot;font-family: Arial; text-decoration-skip-ink: none;&quot;&gt;dcat:version&lt;/span&gt;&lt;/div&gt;&lt;/span&gt;&lt;/div&gt;&lt;div&gt;&lt;span style=&quot;text-decoration-skip-ink: none;&quot;&gt;&lt;font face=&quot;Arial&quot;&gt;adms:versionNotes&lt;/font&gt;&lt;br&gt;&lt;/span&gt;&lt;/div&gt;&lt;/div&gt;&lt;div&gt;&lt;span style=&quot;text-decoration-skip-ink: none;&quot;&gt;&lt;font face=&quot;Arial&quot;&gt;ftr:status&lt;/font&gt;&lt;/span&gt;&lt;/div&gt;" style="rounded=0;whiteSpace=wrap;html=1;snapToPoint=1;points=[[0.1,0],[0.2,0],[0.3,0],[0.4,0],[0.5,0],[0.6,0],[0.7,0],[0.8,0],[0.9,0],[0,0.1],[0,0.3],[0,0.5],[0,0.7],[0,0.9],[0.1,1],[0.2,1],[0.3,1],[0.4,1],[0.5,1],[0.6,1],[0.7,1],[0.8,1],[0.9,1],[1,0.1],[1,0.3],[1,0.5],[1,0.7],[1,0.9]];" vertex="1" parent="1">
          <mxGeometry x="841" y="225.5" width="179" height="224.5" as="geometry" />
        </mxCell>
        <mxCell id="O977XMkRyjqQzKdxgLS7-31" style="edgeStyle=orthogonalEdgeStyle;rounded=0;orthogonalLoop=1;jettySize=auto;html=1;exitX=0;exitY=0.5;exitDx=0;exitDy=0;entryX=1;entryY=0.5;entryDx=0;entryDy=0;endArrow=block;endFill=0;" edge="1" parent="1" source="O977XMkRyjqQzKdxgLS7-32" target="O977XMkRyjqQzKdxgLS7-33">
          <mxGeometry relative="1" as="geometry" />
        </mxCell>
        <mxCell id="O977XMkRyjqQzKdxgLS7-32" value="ftr:Test" style="rounded=0;whiteSpace=wrap;html=1;snapToPoint=1;points=[[0.1,0],[0.2,0],[0.3,0],[0.4,0],[0.5,0],[0.6,0],[0.7,0],[0.8,0],[0.9,0],[0,0.1],[0,0.3],[0,0.5],[0,0.7],[0,0.9],[0.1,1],[0.2,1],[0.3,1],[0.4,1],[0.5,1],[0.6,1],[0.7,1],[0.8,1],[0.9,1],[1,0.1],[1,0.3],[1,0.5],[1,0.7],[1,0.9]];fillColor=#dae8fc;strokeColor=#6c8ebf;" vertex="1" parent="1">
          <mxGeometry x="841" y="195.4999999999999" width="179" height="30" as="geometry" />
        </mxCell>
        <mxCell id="O977XMkRyjqQzKdxgLS7-33" value="&lt;div&gt;dcat:DataService&lt;/div&gt;&lt;div&gt;prov:Agent&lt;/div&gt;" style="rounded=0;whiteSpace=wrap;html=1;snapToPoint=1;points=[[0.1,0],[0.2,0],[0.3,0],[0.4,0],[0.5,0],[0.6,0],[0.7,0],[0.8,0],[0.9,0],[0,0.1],[0,0.3],[0,0.5],[0,0.7],[0,0.9],[0.1,1],[0.2,1],[0.3,1],[0.4,1],[0.5,1],[0.6,1],[0.7,1],[0.8,1],[0.9,1],[1,0.1],[1,0.3],[1,0.5],[1,0.7],[1,0.9]];fillColor=#fff2cc;strokeColor=#d6b656;" vertex="1" parent="1">
          <mxGeometry x="680" y="190.5" width="100" height="40" as="geometry" />
        </mxCell>
        <mxCell id="O977XMkRyjqQzKdxgLS7-35" value="vcard:Individual&lt;div&gt;vcard.Organization&lt;/div&gt;" style="rounded=0;whiteSpace=wrap;html=1;snapToPoint=1;points=[[0.1,0],[0.2,0],[0.3,0],[0.4,0],[0.5,0],[0.6,0],[0.7,0],[0.8,0],[0.9,0],[0,0.1],[0,0.3],[0,0.5],[0,0.7],[0,0.9],[0.1,1],[0.2,1],[0.3,1],[0.4,1],[0.5,1],[0.6,1],[0.7,1],[0.8,1],[0.9,1],[1,0.1],[1,0.3],[1,0.5],[1,0.7],[1,0.9]];fillColor=#fff2cc;strokeColor=#d6b656;" vertex="1" parent="1">
          <mxGeometry x="1130" y="80" width="179" height="40" as="geometry" />
        </mxCell>
        <mxCell id="XY5-7ztARllsN5n1UTWX-10" value="&lt;div style=&quot;forced-color-adjust: none; color: rgb(0, 0, 0); font-family: Helvetica; font-size: 11px; font-style: normal; font-variant-ligatures: normal; font-variant-caps: normal; font-weight: 400; letter-spacing: normal; orphans: 2; text-align: center; text-indent: 0px; text-transform: none; widows: 2; word-spacing: 0px; -webkit-text-stroke-width: 0px; white-space: nowrap; text-decoration-thickness: initial; text-decoration-style: initial; text-decoration-color: initial;&quot;&gt;sio:has-implementation&amp;nbsp;&lt;/div&gt;&lt;div style=&quot;forced-color-adjust: none; color: rgb(0, 0, 0); font-family: Helvetica; font-size: 11px; font-style: normal; font-variant-ligatures: normal; font-variant-caps: normal; font-weight: 400; letter-spacing: normal; orphans: 2; text-align: center; text-indent: 0px; text-transform: none; widows: 2; word-spacing: 0px; -webkit-text-stroke-width: 0px; white-space: nowrap; text-decoration-thickness: initial; text-decoration-style: initial; text-decoration-color: initial;&quot;&gt;(sio:SIO_000234)&lt;/div&gt;" style="edgeStyle=orthogonalEdgeStyle;rounded=0;orthogonalLoop=1;jettySize=auto;html=1;exitX=0.784;exitY=0.998;exitDx=0;exitDy=0;exitPerimeter=0;startArrow=none;startFill=0;" edge="1" parent="1" source="XY5-7ztARllsN5n1UTWX-1">
          <mxGeometry x="-0.1098" relative="1" as="geometry">
            <mxPoint x="960" y="196" as="targetPoint" />
            <Array as="points">
              <mxPoint x="960" y="150" />
              <mxPoint x="960" y="196" />
            </Array>
            <mxPoint as="offset" />
          </mxGeometry>
        </mxCell>
        <mxCell id="XY5-7ztARllsN5n1UTWX-12" value="ftr:associatedMetric" style="edgeStyle=orthogonalEdgeStyle;rounded=0;orthogonalLoop=1;jettySize=auto;html=1;entryX=1;entryY=0.1;entryDx=0;entryDy=0;exitX=0.001;exitY=0.276;exitDx=0;exitDy=0;exitPerimeter=0;" edge="1" parent="1" source="XY5-7ztARllsN5n1UTWX-11" target="XY5-7ztARllsN5n1UTWX-1">
          <mxGeometry relative="1" as="geometry">
            <mxPoint x="1470" y="294" as="sourcePoint" />
            <Array as="points">
              <mxPoint x="1430" y="-175" />
            </Array>
          </mxGeometry>
        </mxCell>
        <mxCell id="XY5-7ztARllsN5n1UTWX-1" value="&lt;span style=&quot;text-decoration-skip-ink: none;&quot;&gt;&lt;div&gt;dcterms:identifier&lt;/div&gt;&lt;div&gt;&lt;span style=&quot;background-color: initial;&quot;&gt;dcterms:title&lt;/span&gt;&lt;br&gt;&lt;/div&gt;&lt;div&gt;dcterms:description&lt;/div&gt;&lt;div&gt;dcat:keyword&lt;/div&gt;&lt;div&gt;dqv:inDimension&lt;/div&gt;&lt;div&gt;vivo:abbreviation&lt;/div&gt;&lt;div&gt;dcat:landingPage&lt;/div&gt;&lt;div&gt;&lt;div&gt;dcat:theme&lt;/div&gt;&lt;div&gt;dcat:version&lt;/div&gt;&lt;div&gt;ftr:status&lt;/div&gt;&lt;/div&gt;&lt;/span&gt;" style="rounded=0;whiteSpace=wrap;html=1;snapToPoint=1;points=[[0.1,0],[0.2,0],[0.3,0],[0.4,0],[0.5,0],[0.6,0],[0.7,0],[0.8,0],[0.9,0],[0,0.1],[0,0.3],[0,0.5],[0,0.7],[0,0.9],[0.1,1],[0.2,1],[0.3,1],[0.4,1],[0.5,1],[0.6,1],[0.7,1],[0.8,1],[0.9,1],[1,0.1],[1,0.3],[1,0.5],[1,0.7],[1,0.9]];" vertex="1" parent="1">
          <mxGeometry x="820" y="-190" width="179" height="147.25" as="geometry" />
        </mxCell>
        <mxCell id="XY5-7ztARllsN5n1UTWX-3" value="dqv:Metric" style="rounded=0;whiteSpace=wrap;html=1;snapToPoint=1;points=[[0.1,0],[0.2,0],[0.3,0],[0.4,0],[0.5,0],[0.6,0],[0.7,0],[0.8,0],[0.9,0],[0,0.1],[0,0.3],[0,0.5],[0,0.7],[0,0.9],[0.1,1],[0.2,1],[0.3,1],[0.4,1],[0.5,1],[0.6,1],[0.7,1],[0.8,1],[0.9,1],[1,0.1],[1,0.3],[1,0.5],[1,0.7],[1,0.9]];fillColor=#fff2cc;strokeColor=#d6b656;" vertex="1" parent="1">
          <mxGeometry x="820" y="-220.0000000000001" width="179" height="30" as="geometry" />
        </mxCell>
        <mxCell id="XY5-7ztARllsN5n1UTWX-11" value="&lt;span style=&quot;text-decoration-skip-ink: none;&quot;&gt;&lt;div&gt;dcterms:identifier&lt;/div&gt;&lt;div&gt;&lt;span style=&quot;background-color: initial;&quot;&gt;dcterms:title&lt;/span&gt;&lt;br&gt;&lt;/div&gt;&lt;div&gt;dcterms:description&lt;/div&gt;&lt;div&gt;dcat:keyword&lt;/div&gt;&lt;div&gt;dqv:inDimension&lt;/div&gt;&lt;div&gt;vivo:abbreviation&lt;/div&gt;&lt;div&gt;dcat:landingPage&lt;/div&gt;&lt;div&gt;dcat:theme&lt;/div&gt;&lt;div&gt;dcat:version&lt;/div&gt;&lt;div&gt;ftr:status&lt;/div&gt;&lt;/span&gt;" style="rounded=0;whiteSpace=wrap;html=1;snapToPoint=1;points=[[0.1,0],[0.2,0],[0.3,0],[0.4,0],[0.5,0],[0.6,0],[0.7,0],[0.8,0],[0.9,0],[0,0.1],[0,0.3],[0,0.5],[0,0.7],[0,0.9],[0.1,1],[0.2,1],[0.3,1],[0.4,1],[0.5,1],[0.6,1],[0.7,1],[0.8,1],[0.9,1],[1,0.1],[1,0.3],[1,0.5],[1,0.7],[1,0.9]];" vertex="1" parent="1">
          <mxGeometry x="1430" y="-190" width="179" height="154.5" as="geometry" />
        </mxCell>
        <mxCell id="XY5-7ztARllsN5n1UTWX-14" value="ftr:Benchmark" style="rounded=0;whiteSpace=wrap;html=1;snapToPoint=1;points=[[0.1,0],[0.2,0],[0.3,0],[0.4,0],[0.5,0],[0.6,0],[0.7,0],[0.8,0],[0.9,0],[0,0.1],[0,0.3],[0,0.5],[0,0.7],[0,0.9],[0.1,1],[0.2,1],[0.3,1],[0.4,1],[0.5,1],[0.6,1],[0.7,1],[0.8,1],[0.9,1],[1,0.1],[1,0.3],[1,0.5],[1,0.7],[1,0.9]];fillColor=#dae8fc;strokeColor=#6c8ebf;" vertex="1" parent="1">
          <mxGeometry x="1430" y="-220.0000000000001" width="179" height="30" as="geometry" />
        </mxCell>
        <mxCell id="XY5-7ztARllsN5n1UTWX-19" value="vcard:fn&lt;br&gt;vcard:organization-name&lt;br&gt;vcard:hasEmail" style="rounded=0;whiteSpace=wrap;html=1;snapToPoint=1;points=[[0.1,0],[0.2,0],[0.3,0],[0.4,0],[0.5,0],[0.6,0],[0.7,0],[0.8,0],[0.9,0],[0,0.1],[0,0.3],[0,0.5],[0,0.7],[0,0.9],[0.1,1],[0.2,1],[0.3,1],[0.4,1],[0.5,1],[0.6,1],[0.7,1],[0.8,1],[0.9,1],[1,0.1],[1,0.3],[1,0.5],[1,0.7],[1,0.9]];" vertex="1" parent="1">
          <mxGeometry x="1130" y="120" width="179" height="50" as="geometry" />
        </mxCell>
        <mxCell id="REUusBUoMJv_IYBHMdrt-13" value="" style="rounded=0;whiteSpace=wrap;html=1;fillColor=none;" vertex="1" parent="1">
          <mxGeometry x="1080" y="505" width="459.5" height="160" as="geometry" />
        </mxCell>
        <mxCell id="IQfZ5sxZ5BrBiyIhkcGK-21" value="" style="edgeStyle=orthogonalEdgeStyle;rounded=0;orthogonalLoop=1;jettySize=auto;html=1;exitX=0;exitY=0.9;exitDx=0;exitDy=0;entryX=0.5;entryY=1;entryDx=0;entryDy=0;jumpStyle=arc;curved=0;" edge="1" parent="1" source="XY5-7ztARllsN5n1UTWX-11" target="XY5-7ztARllsN5n1UTWX-19">
          <mxGeometry relative="1" as="geometry">
            <mxPoint x="1350" y="373" as="targetPoint" />
            <Array as="points">
              <mxPoint x="1340" y="-51" />
              <mxPoint x="1340" y="250" />
              <mxPoint x="1219" y="250" />
            </Array>
          </mxGeometry>
        </mxCell>
        <mxCell id="IQfZ5sxZ5BrBiyIhkcGK-1" value="dcterms:identifier&lt;div&gt;dcterms:title&lt;br&gt;&lt;div&gt;dcterms:description&lt;/div&gt;&lt;div&gt;&lt;span style=&quot;font-family: Arial; background-color: initial;&quot;&gt;dcat:endpointDescription&lt;/span&gt;&lt;br&gt;&lt;/div&gt;&lt;div&gt;&lt;span style=&quot;font-size:12px;color:#000000;font-weight:normal;text-decoration:none;font-family:&#39;Arial&#39;;font-style:normal;text-decoration-skip-ink:none;&quot;&gt;dcat&lt;/span&gt;&lt;span style=&quot;font-size:12px;color:#000000;font-weight:normal;text-decoration:none;font-family:&#39;Arial&#39;;font-style:normal;text-decoration-skip-ink:none;&quot;&gt;:endpointURL&lt;/span&gt;&lt;/div&gt;&lt;div&gt;&lt;span style=&quot;font-size:12px;color:#000000;font-weight:normal;text-decoration:none;font-family:&#39;Arial&#39;;font-style:normal;text-decoration-skip-ink:none;&quot;&gt;dcat:keyword&lt;br&gt;&lt;/span&gt;&lt;/div&gt;&lt;div&gt;&lt;span style=&quot;font-size:12px;color:#000000;font-weight:normal;text-decoration:none;font-family:&#39;Arial&#39;;font-style:normal;text-decoration-skip-ink:none;&quot;&gt;&lt;div style=&quot;font-family: Helvetica;&quot;&gt;vivo:abbreviation&lt;/div&gt;&lt;/span&gt;&lt;/div&gt;&lt;div&gt;&lt;span style=&quot;font-size:12px;color:#000000;font-weight:normal;text-decoration:none;font-family:&#39;Arial&#39;;font-style:normal;text-decoration-skip-ink:none;&quot;&gt;&lt;div style=&quot;font-family: Helvetica;&quot;&gt;dqv:inDimension&lt;/div&gt;&lt;/span&gt;&lt;/div&gt;&lt;div&gt;&lt;span style=&quot;font-family: Arial; background-color: initial;&quot;&gt;doap:repository&lt;/span&gt;&lt;br&gt;&lt;/div&gt;&lt;div&gt;&lt;span style=&quot;text-decoration-skip-ink: none;&quot;&gt;&lt;font face=&quot;Arial&quot;&gt;dcterms:type&lt;/font&gt;&lt;br&gt;&lt;/span&gt;&lt;/div&gt;&lt;div&gt;&lt;span style=&quot;text-decoration-skip-ink: none;&quot;&gt;&lt;font face=&quot;Arial&quot;&gt;dcterms:license&lt;/font&gt;&lt;br&gt;&lt;/span&gt;&lt;/div&gt;&lt;div&gt;&lt;span style=&quot;text-decoration-skip-ink: none;&quot;&gt;&lt;font face=&quot;Arial&quot;&gt;dcat:theme&lt;/font&gt;&lt;br&gt;&lt;/span&gt;&lt;/div&gt;&lt;div&gt;&lt;span style=&quot;text-decoration-skip-ink: none;&quot;&gt;&lt;div&gt;&lt;span style=&quot;font-family: Arial; text-decoration-skip-ink: none;&quot;&gt;dcat:version&lt;/span&gt;&lt;/div&gt;&lt;/span&gt;&lt;/div&gt;&lt;div&gt;&lt;span style=&quot;text-decoration-skip-ink: none;&quot;&gt;&lt;font face=&quot;Arial&quot;&gt;adms:versionNotes&lt;/font&gt;&lt;br&gt;&lt;/span&gt;&lt;/div&gt;&lt;/div&gt;&lt;div&gt;&lt;span style=&quot;text-decoration-skip-ink: none;&quot;&gt;&lt;font face=&quot;Arial&quot;&gt;ftr:status&lt;/font&gt;&lt;/span&gt;&lt;/div&gt;" style="rounded=0;whiteSpace=wrap;html=1;snapToPoint=1;points=[[0.1,0],[0.2,0],[0.3,0],[0.4,0],[0.5,0],[0.6,0],[0.7,0],[0.8,0],[0.9,0],[0,0.1],[0,0.3],[0,0.5],[0,0.7],[0,0.9],[0.1,1],[0.2,1],[0.3,1],[0.4,1],[0.5,1],[0.6,1],[0.7,1],[0.8,1],[0.9,1],[1,0.1],[1,0.3],[1,0.5],[1,0.7],[1,0.9]];" vertex="1" parent="1">
          <mxGeometry x="1420.5" y="220.5" width="179" height="219.5" as="geometry" />
        </mxCell>
        <mxCell id="IQfZ5sxZ5BrBiyIhkcGK-2" style="edgeStyle=orthogonalEdgeStyle;rounded=0;orthogonalLoop=1;jettySize=auto;html=1;exitX=1;exitY=0.5;exitDx=0;exitDy=0;entryX=0;entryY=0.5;entryDx=0;entryDy=0;endArrow=block;endFill=0;" edge="1" parent="1" source="IQfZ5sxZ5BrBiyIhkcGK-3" target="IQfZ5sxZ5BrBiyIhkcGK-4">
          <mxGeometry relative="1" as="geometry" />
        </mxCell>
        <mxCell id="IQfZ5sxZ5BrBiyIhkcGK-17" value="" style="edgeStyle=orthogonalEdgeStyle;rounded=0;orthogonalLoop=1;jettySize=auto;html=1;entryX=0.5;entryY=1;entryDx=0;entryDy=0;jumpStyle=arc;" edge="1" parent="1" target="XY5-7ztARllsN5n1UTWX-19">
          <mxGeometry relative="1" as="geometry">
            <mxPoint x="1420" y="420" as="sourcePoint" />
            <mxPoint x="1350" y="251" as="targetPoint" />
            <Array as="points">
              <mxPoint x="1219" y="420" />
            </Array>
          </mxGeometry>
        </mxCell>
        <mxCell id="IQfZ5sxZ5BrBiyIhkcGK-3" value="ftr:Algorithm" style="rounded=0;whiteSpace=wrap;html=1;snapToPoint=1;points=[[0.1,0],[0.2,0],[0.3,0],[0.4,0],[0.5,0],[0.6,0],[0.7,0],[0.8,0],[0.9,0],[0,0.1],[0,0.3],[0,0.5],[0,0.7],[0,0.9],[0.1,1],[0.2,1],[0.3,1],[0.4,1],[0.5,1],[0.6,1],[0.7,1],[0.8,1],[0.9,1],[1,0.1],[1,0.3],[1,0.5],[1,0.7],[1,0.9]];fillColor=#dae8fc;strokeColor=#6c8ebf;" vertex="1" parent="1">
          <mxGeometry x="1420.5" y="190.4999999999999" width="179" height="30" as="geometry" />
        </mxCell>
        <mxCell id="IQfZ5sxZ5BrBiyIhkcGK-4" value="&lt;div&gt;dcat:DataService&lt;/div&gt;&lt;div&gt;prov:Agent&lt;/div&gt;" style="rounded=0;whiteSpace=wrap;html=1;snapToPoint=1;points=[[0.1,0],[0.2,0],[0.3,0],[0.4,0],[0.5,0],[0.6,0],[0.7,0],[0.8,0],[0.9,0],[0,0.1],[0,0.3],[0,0.5],[0,0.7],[0,0.9],[0.1,1],[0.2,1],[0.3,1],[0.4,1],[0.5,1],[0.6,1],[0.7,1],[0.8,1],[0.9,1],[1,0.1],[1,0.3],[1,0.5],[1,0.7],[1,0.9]];fillColor=#fff2cc;strokeColor=#d6b656;" vertex="1" parent="1">
          <mxGeometry x="1654" y="185.5" width="100" height="40" as="geometry" />
        </mxCell>
        <mxCell id="IQfZ5sxZ5BrBiyIhkcGK-12" style="edgeStyle=orthogonalEdgeStyle;rounded=0;orthogonalLoop=1;jettySize=auto;html=1;exitX=0.6;exitY=0;exitDx=0;exitDy=0;entryX=0;entryY=0.5;entryDx=0;entryDy=0;endArrow=block;endFill=0;" edge="1" parent="1" source="O977XMkRyjqQzKdxgLS7-10" target="O977XMkRyjqQzKdxgLS7-21">
          <mxGeometry relative="1" as="geometry">
            <mxPoint x="599.5" y="562" as="sourcePoint" />
            <mxPoint x="600.5" y="530" as="targetPoint" />
          </mxGeometry>
        </mxCell>
        <mxCell id="IQfZ5sxZ5BrBiyIhkcGK-13" style="edgeStyle=orthogonalEdgeStyle;rounded=0;orthogonalLoop=1;jettySize=auto;html=1;entryX=1;entryY=0.5;entryDx=0;entryDy=0;endArrow=block;endFill=0;exitX=0.2;exitY=0;exitDx=0;exitDy=0;" edge="1" parent="1" source="O977XMkRyjqQzKdxgLS7-15" target="O977XMkRyjqQzKdxgLS7-21">
          <mxGeometry relative="1" as="geometry">
            <mxPoint x="800" y="580" as="sourcePoint" />
            <mxPoint x="791" y="520" as="targetPoint" />
          </mxGeometry>
        </mxCell>
        <mxCell id="IQfZ5sxZ5BrBiyIhkcGK-14" value="&lt;div&gt;sio:is-implementation-of&amp;nbsp;&lt;/div&gt;&lt;div&gt;(sio:SIO_000233)&lt;/div&gt;" style="edgeStyle=orthogonalEdgeStyle;rounded=0;orthogonalLoop=1;jettySize=auto;html=1;entryX=0.3;entryY=1;entryDx=0;entryDy=0;" edge="1" parent="1" target="XY5-7ztARllsN5n1UTWX-11">
          <mxGeometry x="-0.2583" relative="1" as="geometry">
            <mxPoint x="1769" y="-50" as="targetPoint" />
            <Array as="points">
              <mxPoint x="1484" y="158" />
              <mxPoint x="1484" y="54" />
            </Array>
            <mxPoint x="1484" y="190" as="sourcePoint" />
            <mxPoint as="offset" />
          </mxGeometry>
        </mxCell>
        <mxCell id="IQfZ5sxZ5BrBiyIhkcGK-15" value="&lt;div style=&quot;forced-color-adjust: none; color: rgb(0, 0, 0); font-family: Helvetica; font-size: 11px; font-style: normal; font-variant-ligatures: normal; font-variant-caps: normal; font-weight: 400; letter-spacing: normal; orphans: 2; text-align: center; text-indent: 0px; text-transform: none; widows: 2; word-spacing: 0px; -webkit-text-stroke-width: 0px; white-space: nowrap; text-decoration-thickness: initial; text-decoration-style: initial; text-decoration-color: initial;&quot;&gt;sio:has-implementation&amp;nbsp;&lt;/div&gt;&lt;div style=&quot;forced-color-adjust: none; color: rgb(0, 0, 0); font-family: Helvetica; font-size: 11px; font-style: normal; font-variant-ligatures: normal; font-variant-caps: normal; font-weight: 400; letter-spacing: normal; orphans: 2; text-align: center; text-indent: 0px; text-transform: none; widows: 2; word-spacing: 0px; -webkit-text-stroke-width: 0px; white-space: nowrap; text-decoration-thickness: initial; text-decoration-style: initial; text-decoration-color: initial;&quot;&gt;(sio:SIO_000234)&lt;/div&gt;" style="edgeStyle=orthogonalEdgeStyle;rounded=0;orthogonalLoop=1;jettySize=auto;html=1;exitX=0.7;exitY=1;exitDx=0;exitDy=0;" edge="1" parent="1" source="XY5-7ztARllsN5n1UTWX-11">
          <mxGeometry x="-0.1098" relative="1" as="geometry">
            <mxPoint x="1555" y="191" as="targetPoint" />
            <Array as="points">
              <mxPoint x="1555" y="113" />
              <mxPoint x="1555" y="113" />
              <mxPoint x="1555" y="191" />
            </Array>
            <mxPoint as="offset" />
            <mxPoint x="1855" y="-50" as="sourcePoint" />
          </mxGeometry>
        </mxCell>
        <mxCell id="O977XMkRyjqQzKdxgLS7-37" value="dcat:contactPoint" style="edgeStyle=orthogonalEdgeStyle;rounded=0;orthogonalLoop=1;jettySize=auto;html=1;jumpStyle=arc;startArrow=none;startFill=0;" edge="1" parent="1" target="XY5-7ztARllsN5n1UTWX-19">
          <mxGeometry x="0.6473" relative="1" as="geometry">
            <Array as="points">
              <mxPoint x="1220" y="420" />
            </Array>
            <mxPoint as="offset" />
            <mxPoint x="1090" y="430" as="targetPoint" />
            <mxPoint x="1020" y="420" as="sourcePoint" />
          </mxGeometry>
        </mxCell>
        <mxCell id="IQfZ5sxZ5BrBiyIhkcGK-24" value="" style="edgeStyle=orthogonalEdgeStyle;rounded=0;orthogonalLoop=1;jettySize=auto;html=1;exitX=0;exitY=0.5;exitDx=0;exitDy=0;entryX=0.5;entryY=0;entryDx=0;entryDy=0;" edge="1" parent="1" source="XY5-7ztARllsN5n1UTWX-11" target="O977XMkRyjqQzKdxgLS7-35">
          <mxGeometry relative="1" as="geometry">
            <mxPoint x="1300" y="-109.5" as="sourcePoint" />
            <mxPoint x="1379.6666666666667" y="-110" as="targetPoint" />
            <Array as="points">
              <mxPoint x="1430" y="-120" />
              <mxPoint x="1220" y="-120" />
            </Array>
          </mxGeometry>
        </mxCell>
        <mxCell id="IQfZ5sxZ5BrBiyIhkcGK-25" value="" style="edgeStyle=orthogonalEdgeStyle;rounded=0;orthogonalLoop=1;jettySize=auto;html=1;entryX=0.5;entryY=0;entryDx=0;entryDy=0;startArrow=none;startFill=0;" edge="1" parent="1" target="O977XMkRyjqQzKdxgLS7-35">
          <mxGeometry relative="1" as="geometry">
            <mxPoint x="1020" y="290" as="sourcePoint" />
            <mxPoint x="1070" y="-20" as="targetPoint" />
            <Array as="points">
              <mxPoint x="1050" y="290" />
              <mxPoint x="1050" y="-20" />
              <mxPoint x="1220" y="-20" />
            </Array>
          </mxGeometry>
        </mxCell>
        <mxCell id="IQfZ5sxZ5BrBiyIhkcGK-26" value="" style="edgeStyle=orthogonalEdgeStyle;rounded=0;orthogonalLoop=1;jettySize=auto;html=1;entryX=0.5;entryY=0;entryDx=0;entryDy=0;" edge="1" parent="1" target="O977XMkRyjqQzKdxgLS7-35">
          <mxGeometry relative="1" as="geometry">
            <mxPoint x="1420" y="307" as="sourcePoint" />
            <mxPoint x="1419.6666666666667" y="332.25" as="targetPoint" />
            <Array as="points">
              <mxPoint x="1421" y="307" />
              <mxPoint x="1390" y="307" />
              <mxPoint x="1390" y="-20" />
              <mxPoint x="1220" y="-20" />
            </Array>
          </mxGeometry>
        </mxCell>
        <mxCell id="IQfZ5sxZ5BrBiyIhkcGK-27" value="dcterms:creator" style="edgeLabel;html=1;align=center;verticalAlign=middle;resizable=0;points=[];" connectable="0" vertex="1" parent="IQfZ5sxZ5BrBiyIhkcGK-26">
          <mxGeometry x="0.8433" y="2" relative="1" as="geometry">
            <mxPoint x="-2" y="-51" as="offset" />
          </mxGeometry>
        </mxCell>
      </root>
    </mxGraphModel>
  </diagram>
</mxfile>
